<svg width="19" height="19" viewBox="0 0 19 19" fill="none" xmlns="http://www.w3.org/2000/svg">
<g clip-path="url(#clip0_182_2623)">
<path d="M0.158335 8.86667C0.158335 8.70833 0.316668 8.55 0.475 8.39167L8.39167 0.475C9.025 -0.158333 9.975 -0.158333 10.6083 0.475C11.2417 1.10833 11.2417 2.05833 10.6083 2.69167L5.38333 7.91667H17.4167C18.3667 7.91667 19 8.70833 19 9.5C19 10.2917 18.3667 11.0833 17.4167 11.0833H5.38333L10.6083 16.3083C11.2417 16.9417 11.2417 17.8917 10.6083 18.525C9.975 19.1583 9.025 19.1583 8.39167 18.525L0.475 10.6083C0.316668 10.45 0.158335 10.2917 0.158335 10.1333C1.90735e-06 9.65833 1.90735e-06 9.34167 0.158335 8.86667Z" fill="white"/>
</g>
<defs>
<clipPath id="clip0_182_2623">
<rect width="19" height="19" fill="white" transform="matrix(-1 0 0 1 19 0)"/>
</clipPath>
</defs>
</svg>
