<svg width="52" height="52" viewBox="0 0 52 52" fill="none" xmlns="http://www.w3.org/2000/svg">
<path fill-rule="evenodd" clip-rule="evenodd" d="M35.5736 5.63975C35.4744 4.90194 34.8467 4.33325 34.0873 4.33325C33.259 4.33325 32.5873 5.01003 32.5873 5.84487V7.51613H19.431V5.84487L19.4173 5.63975C19.318 4.90194 18.6904 4.33325 17.931 4.33325C17.1025 4.33325 16.431 5.01003 16.431 5.84487V7.55366C10.2842 7.977 6.5 11.9597 6.5 18.3858V36.6255C6.5 43.5222 10.7431 47.6666 17.5419 47.6666H34.4578C41.2648 47.6666 45.4998 43.5917 45.4998 36.7778V18.3858C45.5195 11.9574 41.7473 7.97583 35.5873 7.55348V5.84487L35.5736 5.63975ZM32.5873 10.5394V12.4775L32.601 12.6826C32.7004 13.4204 33.3279 13.9891 34.0873 13.9891C34.9158 13.9891 35.5873 13.3123 35.5873 12.4775V10.5841C40.0693 10.957 42.5143 13.6559 42.4998 18.3812V19.2566H9.49999V18.3858C9.49999 13.6635 11.9584 10.9589 16.431 10.5844V12.4775L16.4447 12.6826C16.544 13.4204 17.1716 13.9891 17.931 13.9891C18.7594 13.9891 19.431 13.3123 19.431 12.4775V10.5394H32.5873ZM9.49999 22.2798V36.6255C9.49999 41.8311 12.3793 44.6434 17.5419 44.6434H34.4578C39.6383 44.6434 42.4998 41.8898 42.4998 36.7778V22.2798H9.49999ZM36.4026 28.6396C36.4026 27.8048 35.7309 27.1279 34.9026 27.1279L34.6805 27.1418C33.9484 27.2419 33.384 27.8743 33.384 28.6396C33.384 29.4744 34.0557 30.1513 34.9026 30.1513L35.1061 30.1374C35.8382 30.0373 36.4026 29.4048 36.4026 28.6396ZM26.0277 27.1279C26.8561 27.1279 27.5277 27.8048 27.5277 28.6396C27.5277 29.4048 26.9633 30.0373 26.2312 30.1374L26.0277 30.1513C25.1808 30.1513 24.5091 29.4744 24.5091 28.6396C24.5091 27.8743 25.0735 27.2419 25.8057 27.1418L26.0277 27.1279ZM18.6343 28.6396C18.6343 27.8048 17.9627 27.1279 17.1343 27.1279L16.9122 27.1418C16.1801 27.2419 15.6158 27.8743 15.6158 28.6396C15.6158 29.4744 16.2873 30.1513 17.1157 30.1513L17.3378 30.1374C18.07 30.0373 18.6343 29.4048 18.6343 28.6396ZM34.9026 34.9613C35.7309 34.9613 36.4026 35.6381 36.4026 36.4729C36.4026 37.2382 35.8382 37.8707 35.1061 37.9708L34.9026 37.9846C34.0557 37.9846 33.384 37.3078 33.384 36.4729C33.384 35.7077 33.9484 35.0752 34.6805 34.9751L34.9026 34.9613ZM27.5277 36.4729C27.5277 35.6381 26.8561 34.9613 26.0277 34.9613L25.8057 34.9751C25.0735 35.0752 24.5091 35.7077 24.5091 36.4729C24.5091 37.3078 25.1808 37.9846 26.0277 37.9846L26.2312 37.9708C26.9633 37.8707 27.5277 37.2382 27.5277 36.4729ZM17.1343 34.9613C17.9627 34.9613 18.6343 35.6381 18.6343 36.4729C18.6343 37.2382 18.07 37.8707 17.3378 37.9708L17.1157 37.9846C16.2873 37.9846 15.6158 37.3078 15.6158 36.4729C15.6158 35.7077 16.1801 35.0752 16.9122 34.9751L17.1343 34.9613Z" fill="#005B9E"/>
</svg>
