<svg width="20" height="20" viewBox="0 0 20 20" fill="none" xmlns="http://www.w3.org/2000/svg">
<path d="M12.72 6.74961L8.43001 11.024L6.78 9.38385C6.69036 9.27979 6.58004 9.19527 6.45597 9.13561C6.33191 9.07594 6.19678 9.04241 6.05906 9.03712C5.92134 9.03184 5.78401 9.0549 5.65568 9.10488C5.52736 9.15485 5.41081 9.23066 5.31335 9.32753C5.2159 9.42441 5.13964 9.54026 5.08937 9.66782C5.03909 9.79539 5.01589 9.9319 5.02121 10.0688C5.02653 10.2057 5.06026 10.34 5.12028 10.4634C5.1803 10.5867 5.26532 10.6963 5.37 10.7855L7.72 13.1314C7.81344 13.2236 7.92426 13.2964 8.0461 13.3459C8.16794 13.3954 8.2984 13.4205 8.43001 13.4197C8.69234 13.4186 8.94374 13.3151 9.13 13.1314L14.13 8.16116C14.2237 8.06875 14.2981 7.95881 14.3489 7.83768C14.3997 7.71654 14.4258 7.58661 14.4258 7.45539C14.4258 7.32416 14.3997 7.19423 14.3489 7.0731C14.2981 6.95196 14.2237 6.84202 14.13 6.74961C13.9426 6.56447 13.6892 6.46055 13.425 6.46055C13.1608 6.46055 12.9074 6.56447 12.72 6.74961ZM10 0C8.02219 0 6.08879 0.583001 4.4443 1.67528C2.79981 2.76756 1.51809 4.32005 0.761209 6.13644C0.00433284 7.95284 -0.193701 9.95154 0.192152 11.8798C0.578004 13.8081 1.53041 15.5793 2.92894 16.9695C4.32746 18.3597 6.10929 19.3065 8.0491 19.69C9.98891 20.0736 11.9996 19.8767 13.8268 19.1244C15.6541 18.372 17.2159 17.0979 18.3147 15.4632C19.4135 13.8285 20 11.9066 20 9.94052C20 8.63511 19.7413 7.34248 19.2388 6.13644C18.7363 4.93041 17.9997 3.83457 17.0711 2.91151C16.1425 1.98845 15.0401 1.25623 13.8268 0.756677C12.6136 0.257119 11.3132 0 10 0ZM10 17.8929C8.41775 17.8929 6.87104 17.4265 5.55544 16.5527C4.23985 15.6789 3.21447 14.4369 2.60897 12.9838C2.00347 11.5307 1.84504 9.93169 2.15372 8.38908C2.4624 6.84646 3.22433 5.42948 4.34315 4.31731C5.46197 3.20515 6.88743 2.44775 8.43928 2.14091C9.99113 1.83406 11.5997 1.99155 13.0615 2.59344C14.5233 3.19534 15.7727 4.21462 16.6518 5.52239C17.5308 6.83016 18 8.36768 18 9.94052C18 12.0496 17.1572 14.0724 15.6569 15.5637C14.1566 17.0551 12.1217 17.8929 10 17.8929Z" fill="#0F8FD3"/>
</svg>
