<svg width="16" height="16" viewBox="0 0 16 16" fill="none" xmlns="http://www.w3.org/2000/svg">
<g clip-path="url(#clip0_106_855)">
<path d="M15.3224 5.82711C15.0613 5.56744 14.6392 5.5686 14.3796 5.82964L6.36537 13.8872C5.32563 14.9269 3.63693 14.9269 2.59525 13.8858C1.55435 12.8443 1.55435 11.1556 2.59538 10.1146L10.8468 1.81986C11.4959 1.17075 12.5513 1.17075 13.2023 1.82126C13.8531 2.47209 13.8531 3.52733 13.2022 4.17835L6.36662 11.0138C6.36619 11.0143 6.36581 11.0148 6.36537 11.0152C6.10496 11.2742 5.68411 11.2738 5.42423 11.0139C5.16391 10.7536 5.16391 10.3317 5.42423 10.0714L8.72368 6.77125C8.984 6.51087 8.98396 6.08874 8.72358 5.82842C8.4632 5.5681 8.04107 5.56813 7.78075 5.82851L4.48133 9.12859C3.70034 9.90958 3.70034 11.1757 4.48139 11.9567C5.26241 12.7378 6.52856 12.7378 7.30961 11.9567C7.31052 11.9558 7.31124 11.9549 7.31211 11.954L14.145 5.12112C15.3167 3.94941 15.3167 2.04992 14.145 0.878209C12.9731 -0.292818 11.0737 -0.292818 9.90271 0.878209L1.65129 9.17303C0.0908201 10.7335 0.09082 13.2662 1.65242 14.8286C3.21505 16.3904 5.7478 16.3904 7.30949 14.8287L15.325 6.76994C15.5846 6.50887 15.5834 6.08677 15.3224 5.82711Z" fill="white"/>
</g>
<defs>
<clipPath id="clip0_106_855">
<rect width="16" height="16" fill="white"/>
</clipPath>
</defs>
</svg>
