<svg width="50" height="51" viewBox="0 0 50 51" fill="none" xmlns="http://www.w3.org/2000/svg">
<path d="M14.0234 4.67167C13.4375 5.0701 13.3301 5.37889 13.3008 6.94276L13.2617 8.35721L16.377 8.38709L19.4824 8.41698L19.9902 8.68592C20.8789 9.16405 21.1133 9.50272 22.3633 12.0527L23.5352 14.4433L33.7109 14.4633L43.8965 14.4932L44.3848 14.7621C45.0098 15.0908 45.5566 15.6486 45.8789 16.2861L46.1426 16.7842L46.1719 24.8326L46.1914 32.881L47.7148 32.8512L49.2285 32.8213L49.6191 32.4029L50 31.9846V21.7248V11.475L49.7461 11.1662C49.6094 10.9869 49.3945 10.7976 49.2773 10.7279C49.1211 10.6383 46.7871 10.5984 39.4043 10.5586L29.7363 10.5088L29.082 10.1801C28.7305 10.0008 28.3008 9.70194 28.125 9.50272C27.959 9.3035 27.3047 8.09823 26.6797 6.81327L25.5371 4.48241H19.9219C14.5605 4.48241 14.2969 4.49237 14.0234 4.67167Z" fill="#0F8FD3"/>
<path d="M7.41211 11.4749C6.76758 11.8535 6.64062 12.232 6.64062 13.7759V15.1206L9.64844 15.1605L12.6465 15.1904L13.1934 15.4494C14.1699 15.9175 14.4434 16.306 15.6836 18.8859L16.7969 21.2167H26.5527C32.7344 21.2167 36.4941 21.2566 36.8262 21.3163C37.9395 21.5355 38.7793 22.1829 39.248 23.199L39.502 23.7568L39.5312 31.7454L39.5605 39.7441H40.8398C42.3633 39.7441 42.793 39.5947 43.1445 38.9572L43.3594 38.5687L43.3398 27.9802L43.3105 17.3818L33.1055 17.332L22.9004 17.2822L22.4121 17.0431C21.4844 16.5749 21.1719 16.1267 19.9609 13.5867L18.8477 11.2558H13.3105C7.8418 11.2558 7.75391 11.2658 7.41211 11.4749Z" fill="#0F8FD3"/>
<path d="M1.11328 18.1189C0.722656 18.2185 0.410156 18.4476 0.185547 18.7963C0.00976562 19.0652 0 19.6031 0 32.3431V45.6011L0.253906 45.9199C0.791016 46.5674 -0.634766 46.5175 18.3398 46.5175H35.6152L35.9375 46.2984C36.1133 46.1689 36.3574 45.9398 36.4648 45.7904C36.6699 45.5115 36.6699 45.4816 36.6992 35.0824C36.709 29.3449 36.6992 24.5537 36.6699 24.4342L36.6211 24.215L26.4844 24.1851L16.3574 24.1552L15.8789 23.9261C14.8242 23.4381 14.6582 23.209 13.3691 20.5892C12.7148 19.2644 12.1289 18.1488 12.0703 18.109C11.9336 18.0093 1.50391 18.0293 1.11328 18.1189ZM26.9141 39.4054C27.4707 39.6744 27.6855 40.1525 27.6855 41.1386C27.6855 41.806 27.6465 42.055 27.4902 42.334C26.9531 43.2504 25.625 43.3002 25.0977 42.4136C24.873 42.0252 24.7656 41.2881 24.8535 40.6306C24.9219 40.1027 25.3223 39.505 25.7227 39.3457C26.0547 39.2062 26.5625 39.2361 26.9141 39.4054ZM31.8457 39.4752C32.3828 39.8338 32.5293 40.2521 32.5 41.2582C32.4707 42.1845 32.3535 42.4535 31.8066 42.8718C31.4551 43.1308 30.7422 43.1308 30.3906 42.8619C29.8437 42.4535 29.6875 42.075 29.6875 41.1984C29.6875 40.6306 29.7363 40.292 29.8633 40.0429C30.0977 39.5648 30.5957 39.2461 31.1035 39.2461C31.3672 39.2461 31.6309 39.3258 31.8457 39.4752Z" fill="#0F8FD3"/>
</svg>
