<svg width="53" height="53" viewBox="0 0 53 53" fill="none" xmlns="http://www.w3.org/2000/svg">
<g clip-path="url(#clip0_81_394)">
<path d="M24.2744 0.79707C23.7568 3.17793 23.8396 2.9709 23.4256 3.05371C22.6078 3.20898 21.1068 3.77832 19.9889 4.35801L18.8088 4.9791L17.5563 4.15098L16.3037 3.32285L14.8338 4.79277C14.016 5.60019 13.3535 6.3041 13.3535 6.36621C13.3535 6.41797 13.5709 6.9873 13.8504 7.6291C14.3266 8.77812 14.3473 8.79883 14.9477 9.16113C15.2789 9.35781 15.7344 9.68906 15.9518 9.88574C16.1795 10.0824 16.3762 10.248 16.3969 10.248C16.4279 10.248 16.6764 9.92715 16.9559 9.54414C20.6617 4.44082 27.6387 3.14687 32.8973 6.57324C34.1498 7.38066 35.2885 8.46758 36.127 9.64766C36.3133 9.92715 36.5203 10.1445 36.5824 10.1445C36.6342 10.1445 36.8309 10.01 37.0068 9.84434C37.1725 9.67871 37.6176 9.35781 37.9902 9.13008L38.6631 8.72637L39.1496 7.59805C39.4188 6.97695 39.6465 6.41797 39.6465 6.36621C39.6465 6.3041 38.984 5.60019 38.1766 4.79277L36.6963 3.32285L35.4438 4.15098L34.1912 4.9791L33.0111 4.35801C31.8932 3.77832 30.3922 3.20898 29.5744 3.05371C29.1604 2.9709 29.2432 3.17793 28.7256 0.79707L28.5496 0H26.5H24.4504L24.2744 0.79707Z" fill="#0F8FD3"/>
<path d="M25.4131 6.42828C22.3387 6.72848 19.3264 8.67457 17.8047 11.3349L17.4941 11.8732L17.7115 12.3597C18.0635 13.1775 18.2188 14.1402 18.2188 15.6929C18.2188 18.1463 17.7633 19.3884 16.3244 20.8584C15.134 22.0902 15.1236 22.0798 17.3906 22.6492L19.2021 23.0943L21.0137 22.6492C22.7424 22.2144 22.8252 22.1834 22.8563 21.9246C22.877 21.7175 22.7838 21.5726 22.4215 21.2828C21.4795 20.5064 20.6721 19.1918 20.3512 17.8978C20.1338 16.9972 20.1234 14.0988 20.3408 13.1672C21.0344 10.2273 23.85 8.13629 26.8623 8.31227C29.3881 8.45719 31.6965 10.3101 32.5246 12.8359C32.8352 13.7986 32.918 16.7591 32.6592 17.8461C32.3383 19.1711 31.5412 20.4857 30.5785 21.2828C30.2059 21.5726 30.123 21.7175 30.1437 21.9246C30.1748 22.1834 30.2473 22.2144 31.9863 22.6492L33.7979 23.0943L35.6094 22.6492C37.8764 22.0798 37.866 22.0798 36.6652 20.8584C35.7232 19.8957 35.2057 18.964 34.9365 17.7529C34.7916 17.1214 34.7709 16.6039 34.802 15.1857C34.8434 13.5709 34.8744 13.3328 35.1436 12.5668L35.4334 11.7283L35.0607 11.1175C33.0836 7.88785 29.2846 6.04528 25.4131 6.42828Z" fill="#0F8FD3"/>
<path d="M10.6104 10.1859C8.88165 10.7346 7.62911 12.1424 7.34961 13.8297C7.19434 14.782 7.2254 16.842 7.40137 17.5459C7.72227 18.7674 8.50899 19.8232 9.5545 20.434L10.041 20.7238V22.1109V23.4877L9.65801 23.5912C9.44063 23.643 8.99551 23.7568 8.66426 23.85C8.07422 23.9949 7.8879 24.0777 7.98106 24.1605C8.00176 24.1709 9.08868 24.8127 10.3826 25.5684L12.7531 26.9451L12.7117 27.9078C12.7014 28.4461 12.691 28.8809 12.7117 28.8809C12.7221 28.8809 13.3639 28.7463 14.1299 28.5703C14.8959 28.3943 15.5481 28.2598 15.5791 28.2598C15.6102 28.2598 15.6309 27.9182 15.6309 27.5041C15.6309 26.5 15.9932 25.4441 16.5729 24.792C16.9559 24.3572 16.8938 24.3158 15.3203 23.9121L13.8193 23.5395L13.7883 22.1316L13.7572 20.7238L14.2748 20.4029C15.0098 19.9268 15.7033 19.14 16.076 18.343C16.3969 17.6598 16.4072 17.6184 16.4383 15.9C16.49 13.5088 16.2727 12.7324 15.2479 11.5938C14.6475 10.9209 13.9022 10.424 13.1465 10.2066C12.484 10.01 11.2004 9.99961 10.6104 10.1859Z" fill="#0F8FD3"/>
<path d="M25.1025 10.2273C23.6223 10.7346 22.6078 11.7697 22.0902 13.2707C21.935 13.7158 21.9039 14.1506 21.8936 15.5273C21.8936 17.049 21.9246 17.3078 22.1316 17.9392C22.5043 19.0055 23.3945 20.0613 24.3572 20.5582L24.6367 20.7135V22.1006V23.4877L24.2537 23.5912C24.0363 23.6533 22.8148 23.9535 21.5313 24.2744C20.1338 24.6264 19.0055 24.968 18.6949 25.1336C18.0945 25.4648 17.6598 26.0238 17.4424 26.7381C17.3078 27.1935 17.2354 27.8457 17.3182 27.8457C17.3285 27.8457 17.7322 27.7732 18.2188 27.6904C19.2643 27.5041 21.1068 27.473 22.0592 27.6283C22.8459 27.7629 23.8293 28.032 26.0963 28.767C26.9762 29.0465 28.0217 29.326 28.415 29.3881C28.8188 29.4502 30.4439 29.8746 32.0381 30.3301C33.6322 30.7855 35.04 31.1582 35.1643 31.1582C35.7129 31.1582 35.7129 31.1789 35.7129 29.15C35.7129 27.059 35.6094 26.5103 35.1125 25.8168C34.6467 25.1853 34.0152 24.9162 31.4688 24.2744C30.1852 23.9535 28.9637 23.6533 28.7566 23.5912L28.3633 23.4877V22.1006V20.7135L28.6531 20.5582C29.6055 20.0613 30.4957 19.0055 30.8684 17.9392C31.0754 17.3182 31.1064 17.049 31.0961 15.6309C31.0961 14.4301 31.0443 13.8814 30.9201 13.457C30.4336 11.8836 29.2846 10.6932 27.8147 10.2273C27.0383 9.98925 25.7961 9.98925 25.1025 10.2273Z" fill="#0F8FD3"/>
<path d="M39.7914 10.1963C38.7873 10.5172 37.7832 11.2625 37.2553 12.101C36.6342 13.074 36.5203 13.6744 36.5617 15.7551C36.5928 17.6391 36.5928 17.6494 36.924 18.343C37.2967 19.14 37.9902 19.9268 38.7252 20.4029L39.2428 20.7238L39.2117 22.1316L39.1807 23.5395L37.6797 23.9121C36.1062 24.3158 36.0441 24.3572 36.4271 24.792C36.7066 25.1025 37.0068 25.6719 37.1932 26.2309C37.3277 26.6242 37.3691 27.1211 37.3691 28.384C37.3691 29.2846 37.4105 30.0195 37.4623 30.0195C37.5348 30.0195 47.3687 24.8852 47.5033 24.7713C47.6172 24.6885 47.3066 24.585 45.5779 24.1605C44.5635 23.9018 43.5594 23.6533 43.3523 23.5912L42.959 23.4877V22.1109V20.7342L43.5697 20.3512C44.6152 19.7094 45.3916 18.5707 45.6607 17.3078C45.8367 16.4693 45.7228 13.985 45.4848 13.3018C44.7498 11.2314 43.0936 10.0203 41.0025 10.0514C40.5678 10.0617 40.0295 10.1238 39.7914 10.1963Z" fill="#0F8FD3"/>
<path d="M0.0207047 29.4191L0.0517593 37.8143L1.86328 38.425C2.85703 38.7562 3.73692 39.0254 3.83008 39.0254C3.9543 39.0254 4.34766 37.5762 5.6209 32.4729C6.52149 28.8809 7.2461 25.8789 7.2461 25.8064C7.2461 25.7029 0.207033 21.0137 0.0517593 21.0137C0.0207047 21.0137 0.0103531 24.792 0.0207047 29.4191Z" fill="#0F8FD3"/>
<path d="M44.4082 28.3115L35.8785 32.8145H35.1953C34.657 32.8145 33.891 32.6281 31.417 31.9242C28.3529 31.0443 28.3012 31.034 27.3902 31.0857L26.4689 31.1375L23.4566 32.6385C20.1545 34.2844 20.082 34.3361 20.082 35.2264C20.082 36.1684 20.8791 36.7998 21.7176 36.51C21.935 36.4375 22.8563 35.9199 23.7879 35.3609C26.0031 34.0359 26.2723 33.9117 27.1729 33.9117C28.0527 33.9117 28.591 34.0566 29.2018 34.4604C29.4502 34.6363 31.4377 36.3857 33.6219 38.3422L37.5762 41.9238L45.2881 38.0627L53 34.2119V29.0154C53 26.148 52.9897 23.8086 52.9793 23.8086C52.9586 23.8189 49.1078 25.8375 44.4082 28.3115Z" fill="#0F8FD3"/>
<path d="M7.2461 33.0111C6.38692 36.4685 5.67266 39.3876 5.66231 39.4912C5.6416 39.6361 5.83828 39.7396 6.55254 39.988C7.05977 40.1537 7.50488 40.2468 7.54629 40.2054C7.67051 40.0501 10.9727 28.4357 10.9727 28.1458C10.9727 27.9078 10.8381 27.7939 9.97891 27.2867C9.43027 26.9658 8.94375 26.707 8.90235 26.707C8.86094 26.707 8.11563 29.5433 7.2461 33.0111Z" fill="#0F8FD3"/>
<path d="M18.374 29.3984C17.8047 29.5123 16.1484 29.8746 14.6992 30.2059L12.0699 30.7959L10.8484 35.04C10.1859 37.3691 9.62695 39.3359 9.62695 39.398C9.62695 39.4602 10.2688 39.8949 11.0451 40.3607L12.4633 41.2096L13.602 40.0812C14.9166 38.7873 15.0719 38.6838 15.8172 38.5182C17.2457 38.218 18.6846 39.1703 19.0469 40.6609C19.1607 41.1371 19.1711 41.1578 19.668 41.2717C20.7238 41.5201 21.5209 42.3172 21.759 43.3523C21.8729 43.8078 21.935 43.9113 22.1523 43.9527C23.498 44.2322 24.2848 45.0293 24.5746 46.3957C24.616 46.582 24.7092 46.6855 24.823 46.6855C25.2682 46.6855 25.9824 47.0271 26.3758 47.4412C26.6035 47.6793 26.9969 48.083 27.2453 48.3418C28.0941 49.2217 29.3984 50.1844 29.8332 50.2568C30.5061 50.3707 30.8787 50.1326 31.0961 49.4598C31.241 48.9939 30.9305 48.6523 28.4668 46.6027L26.0135 44.5531L26.2309 44.2943C26.3447 44.1598 26.5932 43.8596 26.7795 43.6422L27.1004 43.2488L29.6055 45.3398C30.9822 46.4889 32.2451 47.4723 32.4211 47.5137C33.3734 47.7932 34.1291 46.9857 33.7357 46.1266C33.6426 45.9299 29.4295 42.2965 28.8498 41.9031C28.7463 41.841 29.6883 40.5781 29.8436 40.5781C29.885 40.5781 31.0236 41.4994 32.3797 42.6277C33.7357 43.756 34.9262 44.7084 35.0297 44.7498C35.4438 44.9051 35.9199 44.8223 36.2408 44.5324C36.51 44.2943 36.5721 44.1598 36.5721 43.8078C36.5721 43.5283 36.4996 43.2902 36.3754 43.1557C35.8164 42.5242 28.5082 36.0441 28.1355 35.8371C27.618 35.5576 27.0072 35.5473 26.4482 35.806C26.2205 35.9096 25.2475 36.4685 24.2848 37.0482C23.3221 37.6176 22.3697 38.1352 22.1627 38.1973C21.1896 38.4664 20.1545 38.218 19.3781 37.5244C18.6432 36.8619 18.3844 36.2615 18.374 35.2471C18.374 34.5432 18.4154 34.3258 18.6639 33.8289C18.8295 33.4977 19.1297 33.0939 19.3367 32.918C19.5438 32.742 20.8066 32.0484 22.1213 31.3859C23.4463 30.7234 24.5332 30.1437 24.5332 30.1127C24.5332 30.0609 23.3842 29.6883 22.3076 29.3984C21.4898 29.181 19.492 29.181 18.374 29.3984Z" fill="#0F8FD3"/>
<path d="M15.9414 40.2365C15.8586 40.2676 15.3307 40.7438 14.782 41.282C13.6951 42.3586 13.5295 42.6795 13.7676 43.2695C13.9229 43.6525 14.2852 43.8906 14.7199 43.8906C15.134 43.8906 15.3928 43.7354 16.1898 42.9693C17.0697 42.1309 17.3906 41.6547 17.3906 41.2096C17.3803 40.485 16.6453 39.9881 15.9414 40.2365Z" fill="#0F8FD3"/>
<path d="M18.7881 42.9693C18.3533 43.0832 16.459 45.0086 16.4486 45.3502C16.4072 46.2611 16.9248 46.7684 17.7322 46.6131C18.198 46.5199 20.0199 44.698 20.1131 44.2322C20.2787 43.3937 19.6059 42.7623 18.7881 42.9693Z" fill="#0F8FD3"/>
<path d="M20.2684 46.7684C19.316 47.7207 19.1504 47.9381 19.1504 48.2176C19.1504 48.9215 19.6059 49.377 20.3098 49.377C20.5893 49.377 20.7963 49.2217 21.759 48.259C22.7113 47.3066 22.877 47.0893 22.877 46.8098C22.877 46.1059 22.4215 45.6504 21.7176 45.6504C21.4381 45.6504 21.2311 45.8057 20.2684 46.7684Z" fill="#0F8FD3"/>
<path d="M24.1709 48.497C23.7775 48.673 22.0902 50.3707 21.9557 50.7433C21.8107 51.1263 21.9971 51.7164 22.318 51.9234C22.4525 52.0166 22.7631 52.0994 22.9908 52.0994C23.3842 52.0994 23.4773 52.0373 24.4814 51.0332C25.0922 50.4224 25.5684 49.8634 25.5994 49.7082C25.765 48.8386 24.9473 48.1451 24.1709 48.497Z" fill="#0F8FD3"/>
<path d="M26.9451 50.8468C26.883 50.9814 26.6139 51.3334 26.3551 51.6232C26.0859 51.9234 25.8996 52.2133 25.9307 52.2754C25.9721 52.3375 26.1895 52.5342 26.4172 52.6998C27.1522 53.2277 28.0941 53.0621 28.3115 52.3685C28.4565 51.9131 28.2701 51.4783 27.7525 51.0435C27.4731 50.8054 27.2039 50.6191 27.1522 50.6191C27.09 50.6191 27.0072 50.7226 26.9451 50.8468Z" fill="#0F8FD3"/>
</g>
<defs>
<clipPath id="clip0_81_394">
<rect width="53" height="53" fill="white"/>
</clipPath>
</defs>
</svg>
