<svg width="55" height="55" viewBox="0 0 55 55" fill="none" xmlns="http://www.w3.org/2000/svg">
<path d="M11.0859 3.65234C10.8926 3.77051 10.6455 4.01758 10.5273 4.21094C10.3125 4.55469 10.3125 4.78027 10.3125 18.9062C10.3125 33.0322 10.3125 33.2578 10.5273 33.6016C10.6455 33.7949 10.8926 34.042 11.0859 34.1602C11.4404 34.375 11.666 34.375 27.5 34.375C43.334 34.375 43.5596 34.375 43.9141 34.1602C44.1074 34.042 44.3545 33.7949 44.4727 33.6016C44.6875 33.2578 44.6875 33.0322 44.6875 18.9062C44.6875 4.78027 44.6875 4.55469 44.4727 4.21094C44.3545 4.01758 44.1074 3.77051 43.9141 3.65234C43.5703 3.44824 43.3555 3.4375 38.9727 3.4375H34.3857L34.3535 9.63574C34.3213 15.6729 34.3105 15.8555 34.0957 16.2207C33.7734 16.7793 33.2578 17.0801 32.6455 17.0801C32.1621 17.0801 31.9902 16.9834 29.8633 15.5762C28.6172 14.749 27.5537 14.0723 27.5 14.0723C27.4463 14.0723 26.3828 14.749 25.1367 15.5762C23.0098 16.9834 22.8379 17.0801 22.3545 17.0801C21.7422 17.0801 21.2266 16.7793 20.9043 16.2207C20.6895 15.8555 20.6787 15.6729 20.6465 9.63574L20.6143 3.4375H16.0273C11.6445 3.4375 11.4297 3.44824 11.0859 3.65234ZM33.4941 20.9473C34.1602 21.3555 34.4824 22.3652 34.1494 23.0205C33.9775 23.3535 26.8662 30.4863 26.5117 30.6797C26.168 30.8623 25.4268 30.873 25.1045 30.7119C24.7715 30.54 21.0654 26.8555 20.8828 26.5117C20.5176 25.8135 20.8076 24.8145 21.5059 24.3848C21.9033 24.1484 22.6445 24.0947 23.0205 24.2881C23.1494 24.3525 23.8262 24.9756 24.5244 25.6523L25.7812 26.9092L28.7676 23.9443C30.4004 22.3115 31.8398 20.915 31.958 20.8506C32.3125 20.668 33.1074 20.7109 33.4941 20.9473Z" fill="#0F8FD3"/>
<path d="M24.0625 7.89551V12.3535L25.5234 11.3867C26.8555 10.5059 27.0273 10.4199 27.5 10.4199C27.9727 10.4199 28.1445 10.5059 29.4766 11.3867L30.9375 12.3535V7.89551V3.4375H27.5H24.0625V7.89551Z" fill="#0F8FD3"/>
<path d="M8.43262 38.0166C6.1123 38.6826 4.2002 40.627 3.60938 42.9258C3.38379 43.7959 3.38379 45.5791 3.60938 46.4492C4.22168 48.8125 6.27344 50.8535 8.60449 51.4014C9.64648 51.6377 45.3535 51.6377 46.3955 51.4014C48.7266 50.8535 50.7783 48.8125 51.3906 46.4492C51.6162 45.5791 51.6162 43.7959 51.3906 42.9258C50.9287 41.1318 49.5859 39.4346 47.9639 38.5967C46.3203 37.748 47.9531 37.8125 27.4355 37.8232C10.3662 37.8232 9.03418 37.8447 8.43262 38.0166ZM21.2158 41.8086C20.4102 43.5703 20.4102 45.8047 21.2158 47.5557L21.4736 48.125H18.9063H16.3389L16.5967 47.5557C17.0156 46.6533 17.1875 45.7939 17.1875 44.6875C17.1875 43.5811 17.0156 42.7217 16.5967 41.8086L16.3389 41.25H18.9063H21.4736L21.2158 41.8086ZM38.4033 41.8086C37.9844 42.7217 37.8125 43.5811 37.8125 44.6875C37.8125 45.7939 37.9844 46.6533 38.4033 47.5557L38.6611 48.125H36.0938H33.5264L33.7842 47.5557C34.2031 46.6533 34.375 45.7939 34.375 44.6875C34.375 43.5811 34.2031 42.7217 33.7842 41.8086L33.5264 41.25H36.0938H38.6611L38.4033 41.8086ZM11.1504 43.291C12.5469 44.1396 11.9453 46.2988 10.3125 46.2988C9.39941 46.2988 8.70117 45.6006 8.70117 44.6875C8.70117 43.7744 9.39941 43.0762 10.3125 43.0762C10.6025 43.0762 10.9355 43.1621 11.1504 43.291ZM28.3379 43.291C29.7344 44.1396 29.1328 46.2988 27.5 46.2988C26.5869 46.2988 25.8887 45.6006 25.8887 44.6875C25.8887 43.7744 26.5869 43.0762 27.5 43.0762C27.79 43.0762 28.123 43.1621 28.3379 43.291ZM45.5254 43.291C46.9219 44.1396 46.3203 46.2988 44.6875 46.2988C43.7744 46.2988 43.0762 45.6006 43.0762 44.6875C43.0762 43.7744 43.7744 43.0762 44.6875 43.0762C44.9775 43.0762 45.3106 43.1621 45.5254 43.291Z" fill="#0F8FD3"/>
</svg>
