<svg width="51" height="51" viewBox="0 0 51 51" fill="none" xmlns="http://www.w3.org/2000/svg">
<path d="M0.74707 4.97051C0.587695 5.07012 0.358594 5.24941 0.249023 5.37891C0.0498047 5.59805 0.0498047 5.75742 0.0199219 16.4455L0 27.293H15.29H30.5801V16.6547V6.01641L30.351 5.57812C30.2215 5.30918 30.0023 5.08008 29.7832 4.96055C29.4545 4.79121 28.7871 4.78125 15.2402 4.78125C1.59375 4.78125 1.03594 4.79121 0.74707 4.97051Z" fill="#0F8FD3"/>
<path d="M34.2258 12.9791C34.0166 13.0986 33.7576 13.3576 33.658 13.5469C33.4787 13.8756 33.4688 14.3637 33.4688 24.6234V35.3613L34.1262 34.9131C34.9031 34.3951 36.1781 33.917 37.1842 33.7576C38.0309 33.6182 39.4553 33.6979 40.292 33.917C41.7463 34.3055 43.35 35.3713 44.3461 36.6064C45.2625 37.732 46.0195 39.7143 46.0195 40.9594V41.4375H47.942C50.0936 41.4375 50.3625 41.3678 50.7709 40.7502C51 40.4115 51 40.4016 51 36.5467V32.6719L45.2027 29.7732C42.0053 28.1795 39.2461 26.765 39.0568 26.6256C38.4293 26.1475 38.4492 26.3566 38.4492 19.2246V12.75H36.5367C34.7338 12.75 34.5943 12.7699 34.2258 12.9791Z" fill="#0F8FD3"/>
<path d="M41.3379 18.7266V24.6035L46.1191 26.9941C48.7488 28.309 50.9303 29.3848 50.9602 29.3848C50.99 29.3848 51 27.6914 50.9701 25.6195C50.9303 22.1232 50.9203 21.8145 50.7111 21.0873C49.715 17.5213 47.1551 14.6924 43.7982 13.4473C43.2803 13.258 41.7064 12.8496 41.4674 12.8496C41.3678 12.8496 41.3379 14.0947 41.3379 18.7266Z" fill="#0F8FD3"/>
<path d="M0 35.3016V40.4115L0.229102 40.7502C0.597656 41.308 0.986133 41.4375 2.27109 41.4375H3.38672V40.9594C3.38672 40.7004 3.45645 40.1924 3.53613 39.8238C4.40273 35.71 8.52656 32.9807 12.6006 33.8174C14.1246 34.1361 15.7383 35.0326 16.7344 36.1283C17.84 37.3436 18.6668 39.1564 18.7963 40.6805L18.8561 41.4375H24.1354C29.3748 41.4375 29.4146 41.4375 29.7932 41.2184C30.0422 41.0789 30.2514 40.8498 30.3809 40.5908C30.5701 40.1924 30.5801 39.9732 30.5801 35.182V30.1816H15.29H0V35.3016Z" fill="#0F8FD3"/>
<path d="M10.0705 36.6662C8.94492 36.8854 7.64004 37.8018 6.98262 38.8377C6.00645 40.3717 6.03633 42.5033 7.05234 44.0871C7.94883 45.4717 9.37324 46.2188 11.1164 46.2188C12.9791 46.2188 14.5131 45.3023 15.3598 43.6588C16.3658 41.7363 16.0371 39.525 14.523 38.0109C13.3377 36.8355 11.724 36.3375 10.0705 36.6662Z" fill="#0F8FD3"/>
<path d="M37.0646 36.716C35.8096 37.0547 34.5844 38.0309 34.0266 39.1266C32.3531 42.4336 34.6342 46.2188 38.2998 46.2188C41.0291 46.2188 43.1309 44.117 43.1309 41.3877C43.1309 40.0828 42.7225 39.0668 41.826 38.1006C40.6107 36.8057 38.748 36.2578 37.0646 36.716Z" fill="#0F8FD3"/>
</svg>
