<svg width="56" height="56" viewBox="0 0 56 56" fill="none" xmlns="http://www.w3.org/2000/svg">
<path d="M39.7469 2.86563C39.1344 3.31406 37.2969 5.19531 37.2969 5.35938C37.2969 5.57812 48.1359 16.4062 48.3547 16.4062C48.4531 16.4062 49.0875 15.8266 49.7875 15.1156C50.8156 14.0656 51.0562 13.7594 51.1109 13.4313C51.2531 12.5016 51.2531 12.5016 46.6156 7.83125C44.2203 5.43594 42.0328 3.28125 41.7484 3.05156C41.2781 2.67969 41.1469 2.625 40.6328 2.625C40.2172 2.625 39.9766 2.69063 39.7469 2.86563Z" fill="#0F8FD3"/>
<path d="M12.5781 4.93281C12.2828 5.02031 11.1672 6.07031 7.83125 9.38437C5.43594 11.7687 3.28125 13.9672 3.05156 14.2516C2.67969 14.7219 2.625 14.8531 2.625 15.3672C2.625 15.7828 2.69062 16.0234 2.86562 16.2531C3.31406 16.8656 5.19531 18.7031 5.35938 18.7031C5.57812 18.7031 16.4062 7.86406 16.4062 7.64531C16.4062 7.40469 13.8469 4.92187 13.5953 4.92187C13.4859 4.92187 13.3 4.9 13.1797 4.87812C13.0594 4.84531 12.7859 4.87812 12.5781 4.93281Z" fill="#0F8FD3"/>
<path d="M36.1484 8.43281C35.2734 9.16562 34.4531 9.65781 33.0312 10.2812C31.7516 10.8391 30.4937 11.6484 29.8047 12.3594L29.3781 12.7969L36.1484 19.5781C39.8781 23.3078 42.9625 26.3594 43.0062 26.3594C43.225 26.3594 43.2578 25.7031 43.1484 23.5156C43.05 21.5031 43.1375 20.9016 43.7609 19.6109C44.0781 18.9437 44.4062 18.4844 45.0515 17.8063L45.9265 16.8875L41.4203 12.3813C38.9375 9.89844 36.8812 7.875 36.8594 7.875C36.8266 7.875 36.4984 8.12656 36.1484 8.43281Z" fill="#0F8FD3"/>
<path d="M12.3813 14.5796C9.89844 17.0624 7.875 19.1405 7.875 19.2061C7.875 19.2608 8.05 19.4796 8.25781 19.6874C8.87031 20.278 9.60313 21.4593 10.2266 22.8593C10.5438 23.5702 11.0578 24.5108 11.3641 24.9593C11.9984 25.878 21.5359 35.4593 21.6125 35.2624C21.8641 34.628 22.7828 33.6327 23.3297 33.4358C23.4063 33.403 22.2031 32.1124 20.6609 30.5593C18.9875 28.8749 17.7625 27.5405 17.6313 27.278C16.9531 25.9327 17.4125 24.2702 18.7031 23.3952C19.0859 23.1436 19.0969 23.0999 18.9547 22.903C18.1891 21.9077 18.0578 20.6827 18.6047 19.5999C19.1406 18.5171 20.0813 17.9155 21.2734 17.8936C22.0281 17.8827 22.4875 18.0358 23.2094 18.5608C23.6797 18.8999 23.7234 18.9108 23.7891 18.714C23.8875 18.4077 24.8828 17.5108 25.3531 17.314C25.8563 17.0952 26.9281 17.0733 27.4859 17.2702C27.7156 17.3468 28.1203 17.5765 28.3828 17.7843L28.875 18.1561L29.0281 17.8499C29.1813 17.5436 29.8484 16.8983 30.2313 16.6796C30.3953 16.5811 30.1656 16.3186 28.6344 14.8093C27.1688 13.3765 26.7641 13.0374 26.3703 12.9171C26.0203 12.8186 25.3641 12.7968 23.8 12.8624C22.05 12.9171 21.6016 12.9061 21 12.753C19.7859 12.4468 18.8016 11.889 17.7953 10.9374L16.8875 10.0733L12.3813 14.5796Z" fill="#0F8FD3"/>
<path d="M30.9859 18.5281C30.6031 18.8453 30.4937 19.2281 30.6359 19.7312C30.7015 19.95 31.5765 20.9125 33.3047 22.6406C35.6125 24.9593 35.875 25.2546 35.875 25.5828C35.875 26.0531 35.7219 26.3265 35.3281 26.5234C35.0437 26.6656 34.9562 26.6765 34.65 26.5343C34.4422 26.4468 32.7578 24.839 30.789 22.8593C28.864 20.9234 27.1578 19.2718 26.9937 19.1843C26.6219 18.9875 26.425 18.9875 25.9765 19.1953C25.5828 19.3921 25.375 19.7531 25.375 20.2562C25.375 20.5625 25.7906 21.0218 29.1484 24.3906C32.714 27.9671 32.9219 28.1968 32.9219 28.5796C32.9219 29.1484 32.5281 29.575 32.0031 29.575C31.6203 29.575 31.3797 29.3453 26.764 24.7515C21.5031 19.5015 21.5687 19.5562 20.8031 19.95C20.3656 20.1687 20.2344 20.4312 20.2344 21.0109V21.4812L25.1015 26.3593C29.5422 30.8109 29.9687 31.2703 29.9687 31.5984C29.9687 31.85 29.8703 32.0468 29.6515 32.2765C29.2906 32.6265 29.0062 32.6703 28.5687 32.4406C28.4047 32.3531 26.6219 30.625 24.6094 28.6125C20.6937 24.6859 20.6281 24.6421 19.8953 24.9375C19.4687 25.1234 19.2062 25.6156 19.2937 26.1296C19.3484 26.4578 20.0812 27.2343 24.7734 31.9375C30.7453 37.9203 30.5265 37.6359 29.9031 38.3796C29.6844 38.6421 29.5312 38.7187 29.225 38.7187C28.864 38.7187 28.689 38.5765 27.0156 36.914L25.2 35.1093H24.6969C23.7562 35.1093 23.1109 36.0281 23.3953 36.9687C23.5484 37.4937 28.8422 42.7765 29.4765 43.05C29.8484 43.2031 30.1875 43.214 32.0469 43.1484C34.5515 43.0609 35.0765 43.1265 36.389 43.7609C37.0562 44.0781 37.5156 44.4062 38.1937 45.0515L39.1125 45.9265L43.6187 41.4203C46.1015 38.9375 48.125 36.8812 48.125 36.8375C48.125 36.7937 47.8734 36.4765 47.5672 36.1265C46.8672 35.3281 46.2875 34.3546 45.7297 33.0531C44.8875 31.0843 44.5812 30.7343 38.139 24.3031C32.6156 18.7796 32.1672 18.3531 31.7625 18.2984C31.4015 18.2546 31.2703 18.2875 30.9859 18.5281Z" fill="#0F8FD3"/>
<path d="M12.8516 29.8702C12.8078 29.9905 12.8078 31.0405 12.8516 32.189C12.9172 33.9499 12.9062 34.3984 12.7531 34.9999C12.4578 36.1702 11.8562 37.2312 10.9156 38.2265L10.0734 39.1124L14.6016 43.6405C18.7469 47.7859 19.1406 48.1468 19.3266 48.0155C19.4359 47.928 19.7094 47.6984 19.939 47.4905C20.6172 46.8999 21.525 46.364 22.8047 45.8062C24.1281 45.2265 25.5172 44.3405 26.1953 43.6405L26.6219 43.203L19.8516 36.4218C16.1219 32.6921 13.0375 29.6405 12.9937 29.6405C12.95 29.6405 12.8844 29.739 12.8516 29.8702Z" fill="#0F8FD3"/>
<path d="M45.0297 42.7439C42.0438 45.7298 39.5938 48.2564 39.5938 48.3548C39.5938 48.4532 40.1844 49.0985 40.8953 49.7985C42.3172 51.1876 42.4703 51.2642 43.5312 51.0126C43.8156 50.947 52.1391 42.7548 52.9484 41.7485C53.3203 41.2782 53.375 41.147 53.375 40.6329C53.375 40.2173 53.3094 39.9767 53.1344 39.747C52.6859 39.1345 50.8047 37.297 50.6406 37.297C50.5531 37.297 48.0266 39.747 45.0297 42.7439Z" fill="#0F8FD3"/>
<path d="M6.21251 40.8734C5.18438 41.9344 4.94376 42.2406 4.88907 42.5688C4.74688 43.4984 4.74688 43.4984 9.38438 48.1688C11.7797 50.5641 13.9672 52.7188 14.2516 52.9484C14.6891 53.2984 14.875 53.375 15.2578 53.375C15.5203 53.375 15.8703 53.3203 16.0234 53.2656C16.4063 53.1234 18.7031 50.8813 18.7031 50.6516C18.7031 50.4219 7.87501 39.5938 7.64532 39.5938C7.54688 39.5938 6.91251 40.1734 6.21251 40.8734Z" fill="#0F8FD3"/>
</svg>
