<svg width="59" height="59" viewBox="0 0 59 59" fill="none" xmlns="http://www.w3.org/2000/svg">
<path d="M7.61698 3.91797C5.02421 4.87441 3.8373 7.78984 5.00116 10.325C5.2662 10.9127 6.53378 12.3301 6.7873 12.3301C6.83339 12.3301 7.17909 11.823 7.55937 11.2008C8.0664 10.3711 8.57343 9.74883 9.50683 8.81543C10.6822 7.64004 11.2008 7.25977 13.1367 6.13047C13.275 6.03828 13.2519 5.94609 12.9639 5.54277C12.5375 4.90898 11.9728 4.44805 11.1777 4.06777C10.3019 3.64141 8.55038 3.57227 7.61698 3.91797Z" fill="#0F8FD3"/>
<path d="M29.7881 3.8834C28.9814 4.17148 28.1978 4.74766 27.6447 5.43906L27.1838 6.02676L28.0711 6.53379C30.3988 7.85898 32.4269 9.91016 33.3719 11.8922C33.4871 12.1342 33.6139 12.3301 33.6484 12.3301C33.6945 12.3301 33.948 12.1803 34.2016 11.9844C35.2848 11.2008 35.9531 9.7834 35.9531 8.25078C35.9531 6.40703 34.9851 4.87441 33.3027 4.06777C32.4615 3.65293 30.6869 3.57227 29.7881 3.8834Z" fill="#0F8FD3"/>
<path d="M17.919 6.52235C12.4569 7.37508 8.60803 10.8091 7.58245 15.7757C7.25979 17.2968 7.25979 19.5784 7.58245 21.0995C8.51584 25.6167 11.6272 28.7395 16.4555 30.0532C17.5041 30.3298 17.7346 30.3528 20.166 30.3528C22.8971 30.3643 23.2889 30.3182 25.0635 29.7651C28.993 28.5436 31.7817 25.6167 32.8649 21.572C33.1645 20.4311 33.2797 17.6655 33.0723 16.3864C32.8072 14.704 32.0813 12.8372 31.194 11.5235C30.6754 10.763 29.3156 9.38016 28.5205 8.81551C27.2414 7.90516 25.6512 7.20223 23.7383 6.72977C23.0008 6.54539 18.7487 6.39559 17.919 6.52235ZM15.3262 16.0177C15.8448 16.5362 15.453 17.4005 14.7155 17.4005C14.2315 17.4005 13.9088 17.0663 13.9088 16.5708C13.9088 15.8794 14.8307 15.5222 15.3262 16.0177ZM26.3887 16.0177C26.9072 16.5362 26.5155 17.4005 25.778 17.4005C25.294 17.4005 24.9713 17.0663 24.9713 16.5708C24.9713 15.8794 25.8932 15.5222 26.3887 16.0177ZM22.6436 17.7692C23.4387 18.1956 23.8535 18.887 23.8535 19.7858C23.8535 20.627 23.4963 21.1225 22.2172 22.0329L21.0879 22.8395V24.3376V25.8356L21.5719 25.755C22.874 25.536 24.0725 24.9022 24.8906 24.0149C25.4553 23.3927 25.6858 22.8856 25.824 21.9522C25.9278 21.1686 26.1928 20.8575 26.7459 20.8575C27.541 20.8575 27.7715 21.8024 27.299 23.1852C26.792 24.7063 25.7434 25.8241 24.061 26.6768C22.6666 27.3798 21.6526 27.5872 19.901 27.5181C18.7602 27.472 18.3108 27.4028 17.5272 27.1378C15.1188 26.3196 13.3557 24.4528 13.033 22.3786C12.8602 21.3069 13.1137 20.8575 13.8742 20.8575C14.3237 20.8575 14.6002 21.2147 14.6924 21.9061C14.8076 22.7819 15.1073 23.4042 15.741 24.0956C16.5477 24.9483 17.6194 25.5014 18.933 25.7434L19.3594 25.8241V24.2915V22.7589L18.3684 22.0675C17.8153 21.6872 17.2506 21.2147 17.1123 21.0304C16.1559 19.7858 16.8127 18.0112 18.3684 17.6194C18.5643 17.5733 19.5323 17.5388 20.5117 17.5503C21.9061 17.5733 22.3785 17.6194 22.6436 17.7692Z" fill="#0F8FD3"/>
<path d="M18.3914 19.5322C18.3568 19.6244 18.3568 19.7742 18.3914 19.8664C18.4836 20.1084 20.0162 21.2031 20.2582 21.2031C20.3734 21.2031 20.8344 20.9381 21.2953 20.6154C21.9982 20.1199 22.125 19.9816 22.125 19.6936V19.3594H20.2928C18.7717 19.3594 18.449 19.3939 18.3914 19.5322Z" fill="#0F8FD3"/>
<path d="M41.8416 21.5143L39.5254 24.833L41.8877 24.8676C43.1898 24.8791 45.3102 24.8791 46.6123 24.8676L48.9746 24.833L46.6584 21.5143C45.3908 19.6936 44.3076 18.207 44.25 18.207C44.1924 18.207 43.1092 19.6936 41.8416 21.5143Z" fill="#0F8FD3"/>
<path d="M38.7188 30.9289C38.7188 35.0428 38.7303 35.1465 39.0068 36.2066C39.1682 36.7943 39.2949 37.3936 39.2949 37.5318V37.7969H44.5381H49.7812V32.2656V26.7344H44.25H38.7188V30.9289ZM45.8402 29.0391C46.6584 29.4539 47.1654 29.9955 47.5688 30.8598C47.8107 31.4014 47.8453 31.5973 47.7992 32.427C47.7186 33.8789 47.0732 34.8814 45.8287 35.4922C44.0771 36.3449 42.0145 35.6881 41.0811 33.9826C40.7008 33.2797 40.5625 32.0582 40.7814 31.2631C40.9773 30.5602 41.5881 29.7189 42.2219 29.2926C42.9248 28.8201 43.3051 28.7164 44.3191 28.7049C45.0105 28.6934 45.241 28.751 45.8402 29.0391Z" fill="#0F8FD3"/>
<path d="M43.2359 30.6523C42.6828 30.998 42.4062 31.5166 42.4062 32.2656C42.4062 33.418 43.0977 34.1094 44.25 34.1094C45.4023 34.1094 46.0938 33.418 46.0938 32.2656C46.0938 31.5166 45.8172 30.998 45.2641 30.6523C44.7455 30.3412 43.7545 30.3412 43.2359 30.6523Z" fill="#0F8FD3"/>
<path d="M9.17265 29.1543C6.62597 30.6409 4.75917 32.6344 3.80273 34.9161C3.21503 36.2874 2.88085 37.7278 2.80019 39.1913C2.74257 40.4588 2.7541 40.5625 3.03066 41.1733C3.41093 42.0145 4.21757 42.7866 5.00117 43.0862L5.62343 43.3167L6.38398 42.5907C7.20214 41.7956 8.58495 41.035 9.63359 40.793L10.2213 40.6663L10.3019 39.7213C10.5209 36.9557 11.6041 33.902 13.1021 31.8508C13.6092 31.1594 13.7129 30.952 13.5861 30.8713C13.4939 30.8137 13.3672 30.7676 13.298 30.7676C13.1137 30.7676 11.3506 29.6844 10.6592 29.1543C10.3365 28.9008 10.0369 28.6934 10.0139 28.6934C9.99081 28.6934 9.61054 28.9008 9.17265 29.1543Z" fill="#0F8FD3"/>
<path d="M29.5922 29.3618C29.0967 29.7305 28.29 30.2375 27.8061 30.4795C27.3106 30.7331 26.8842 30.9405 26.8611 30.9635C26.8381 30.975 27.0916 31.3438 27.4143 31.7702C28.1518 32.7497 29.0391 34.5243 29.5 35.9532C29.8803 37.117 30.3066 39.3411 30.3066 40.1592V40.6547L30.9174 40.793C31.9775 41.035 33.3488 41.7956 34.1785 42.5907L34.9275 43.3167L35.4 43.1438C36.4256 42.7866 37.3936 41.761 37.6816 40.7239C37.8891 39.9864 37.7623 38.2348 37.3936 36.8174C36.5178 33.4756 34.4666 30.8944 31.217 29.0622C30.8598 28.8547 30.5486 28.6934 30.5256 28.6934C30.5025 28.6934 30.0762 28.993 29.5922 29.3618Z" fill="#0F8FD3"/>
<path d="M14.8191 32.3923C13.2865 34.3513 12.2494 37.0708 12.0304 39.6982L11.9498 40.6662L12.2839 40.7353C13.4363 41.0003 14.508 41.5304 15.5105 42.3601C16.6283 43.2589 17.7806 45.241 18.1379 46.8658C18.4951 48.4791 18.3222 50.8068 17.7345 52.1781C17.6078 52.4546 17.5156 52.7197 17.5156 52.7658C17.5156 52.881 18.23 53.1921 18.8408 53.3535C19.44 53.5033 21.1224 53.5033 21.7216 53.3535C22.3324 53.1921 23.0468 52.881 23.0468 52.7658C23.0468 52.7197 22.9547 52.4546 22.8279 52.1781C22.2402 50.8068 22.0673 48.4791 22.4246 46.8658C22.6666 45.771 23.4617 44.1347 24.1992 43.2359C25.1441 42.0835 26.5845 41.1847 28.1056 40.7929L28.6127 40.6662L28.532 39.6982C28.313 37.0248 27.2529 34.2822 25.6857 32.3001C25.1556 31.6433 25.0519 31.5626 24.7869 31.6318C21.9867 32.3462 17.988 32.3462 15.6488 31.6203C15.522 31.5857 15.2685 31.8046 14.8191 32.3923Z" fill="#0F8FD3"/>
<path d="M39.4908 40.2975C39.4562 40.6662 39.3871 41.0811 39.341 41.2193C39.2719 41.4729 39.3064 41.4844 39.8365 41.4844C40.1592 41.4844 40.5855 41.542 40.7929 41.6111C41.4152 41.8301 41.4843 42.1643 41.4843 45.1719C41.4843 48.1795 41.4152 48.5137 40.7929 48.7326C40.574 48.8018 39.6521 48.8594 38.592 48.8594H36.7597V49.424C36.7597 49.7352 36.7252 50.15 36.6906 50.3459L36.6215 50.7031H39.9748H43.3281V45.1719V39.6406H41.4383H39.5599L39.4908 40.2975Z" fill="#0F8FD3"/>
<path d="M45.1719 45.1719V50.7031H50.7031H56.2344V45.1719V39.6406H50.7031H45.1719V45.1719ZM51.2793 41.8301C51.6135 42.1643 54.2754 47.5572 54.2754 47.8914C54.2754 48.7672 53.9182 48.8594 50.7031 48.8594C47.5342 48.8594 47.1309 48.7557 47.1309 47.949C47.1309 47.6379 50.0693 41.7609 50.2652 41.6803C50.5994 41.542 51.0604 41.6111 51.2793 41.8301Z" fill="#0F8FD3"/>
<path d="M50.0693 45.5867C49.7582 46.2551 49.4816 46.8543 49.4586 46.9119C49.4355 46.9695 50.0002 47.0156 50.7492 47.0156H52.0859L51.4291 45.6904C51.0603 44.9645 50.7377 44.3652 50.7031 44.3652C50.6685 44.3768 50.392 44.9184 50.0693 45.5867Z" fill="#0F8FD3"/>
<path d="M9.62206 42.5561C7.75526 43.1783 6.25721 44.8723 5.71561 46.9811C5.47362 47.9029 5.47362 49.8158 5.71561 50.7377C6.17655 52.5469 7.45565 54.1717 8.9537 54.8861C9.6912 55.2318 9.80643 55.2549 11.0625 55.2549C12.3185 55.2549 12.4338 55.2318 13.1828 54.8746C14.6808 54.1717 15.9484 52.5584 16.4094 50.7492C16.6514 49.8158 16.6514 47.9029 16.4094 46.9811C15.9369 45.1719 14.6693 43.5471 13.1713 42.8441C12.4799 42.51 12.2609 42.4639 11.2353 42.4408C10.5094 42.4178 9.91014 42.4639 9.62206 42.5561Z" fill="#0F8FD3"/>
<path d="M28.0596 42.5561C26.1928 43.1783 24.6947 44.8723 24.1531 46.9811C23.9111 47.9029 23.9111 49.8158 24.1531 50.7377C24.6141 52.5469 25.8932 54.1717 27.3912 54.8861C28.1287 55.2318 28.2439 55.2549 29.5 55.2549C30.756 55.2549 30.8713 55.2318 31.6203 54.8746C32.1849 54.6096 32.6344 54.2754 33.176 53.7223C34.4666 52.3971 35.0312 50.9221 35.0312 48.8594C35.0312 46.7967 34.4666 45.3217 33.176 43.9965C32.6344 43.4434 32.1849 43.1092 31.6203 42.8441C30.9174 42.51 30.6984 42.4639 29.6728 42.4408C28.9469 42.4178 28.3476 42.4639 28.0596 42.5561Z" fill="#0F8FD3"/>
<path d="M37.5894 43.7891C37.3129 44.0426 36.8289 44.3652 36.5178 44.5035C35.884 44.8031 35.884 44.757 36.2988 45.9785C36.4371 46.3934 36.5754 46.7967 36.5984 46.8658C36.6215 46.9811 37.0363 47.0156 38.1426 47.0156H39.6406V45.1719V43.3281H38.8686C38.1195 43.3396 38.0619 43.3627 37.5894 43.7891Z" fill="#0F8FD3"/>
</svg>
