<svg width="52" height="53" viewBox="0 0 52 53" fill="none" xmlns="http://www.w3.org/2000/svg">
<path d="M21.8664 1.48027C21.3789 1.75977 15.4375 6.06602 15.4375 6.12812C15.4375 6.17988 17.1234 6.21094 19.1852 6.21094H22.9328L25.9391 3.83008C27.5945 2.51543 28.9453 1.41816 28.9453 1.39746C28.9453 1.36641 27.4016 1.3457 25.5227 1.3457C22.9836 1.3457 22.0289 1.38711 21.8664 1.48027Z" fill="#0F8FD3"/>
<path d="M28.8742 3.70603C27.2391 4.99998 25.9086 6.08689 25.9086 6.1283C25.8984 6.18006 27.4727 6.21111 29.3922 6.21111C32.2359 6.21111 32.957 6.24217 33.3125 6.36638C33.668 6.4906 33.7797 6.50095 33.9016 6.39744C34.643 5.7867 39.3656 1.52185 39.3859 1.44939C39.4062 1.38728 38.0555 1.34588 35.6281 1.34588L31.8398 1.35623L28.8742 3.70603Z" fill="#0F8FD3"/>
<path d="M37.8727 5.19648L34.968 7.78437L35.1 8.26055C35.2117 8.64355 35.2422 10.4033 35.2422 17.6391V26.5518L37.9438 23.8086C39.4266 22.2973 40.7063 20.9412 40.7875 20.7859C40.9094 20.5479 40.9297 19.1297 40.9297 11.542C40.9297 6.61465 40.8992 2.58789 40.8586 2.58789C40.8078 2.59824 39.4672 3.76797 37.8727 5.19648Z" fill="#0F8FD3"/>
<path d="M12.3703 8.2709L12.0352 8.57109L12.0047 18.1359C11.9945 23.3945 12.0047 27.8457 12.0352 28.0424C12.0758 28.2287 12.2078 28.4979 12.3398 28.6324L12.5836 28.8809H22.75H32.9164L33.1602 28.6324C33.2922 28.4979 33.4242 28.2287 33.4648 28.0424C33.4953 27.8457 33.5055 23.3945 33.4953 18.1359L33.4648 8.57109L33.1297 8.2709L32.8047 7.9707H22.75H12.6953L12.3703 8.2709ZM20.1602 21.5209C20.668 21.7486 21.0844 22.2352 21.2367 22.7631C21.3078 22.9908 21.3383 23.6533 21.318 24.3986C21.2773 25.5373 21.257 25.6719 21.0031 26.0549C20.8406 26.3137 20.5563 26.5621 20.2719 26.6967C19.8453 26.9141 19.7133 26.9244 17.4891 26.8934L15.1531 26.8623L14.757 26.5414C14.107 26.0135 14.0156 25.7133 14.0156 24.1398C14.0156 22.6492 14.107 22.2973 14.5742 21.8418C15.0313 21.407 15.4578 21.3346 17.6719 21.3346C19.4797 21.3242 19.8047 21.3553 20.1602 21.5209ZM31.1695 21.5934C31.393 21.7797 31.4844 21.9557 31.4844 22.173C31.4844 22.9908 31.0477 23.1875 29.25 23.1875C27.4523 23.1875 27.0156 22.9908 27.0156 22.173C27.0156 21.9557 27.107 21.7797 27.3305 21.5934C27.6352 21.3242 27.6656 21.3242 29.25 21.3242C30.8344 21.3242 30.8648 21.3242 31.1695 21.5934ZM31.2305 25.4131C31.5047 25.6926 31.5656 26.2309 31.3523 26.5104C31.0883 26.852 30.7938 26.9141 29.25 26.9141C27.7063 26.9141 27.4117 26.852 27.1477 26.5104C26.9344 26.2309 26.9953 25.6926 27.2695 25.4131C27.5133 25.1543 27.5438 25.1543 29.25 25.1543C30.9563 25.1543 30.9867 25.1543 31.2305 25.4131Z" fill="#0F8FD3"/>
<path d="M15.7422 24.1709V25.1543L17.6516 25.1336L19.5508 25.1025L19.5812 24.1398L19.6117 23.1875H17.6719H15.7422V24.1709Z" fill="#0F8FD3"/>
<path d="M9.57734 24.3158C9.46562 24.4193 8.01328 25.4648 6.35781 26.6449C4.70234 27.825 3.35156 28.8084 3.35156 28.8395C3.35156 28.8602 4.94609 28.8809 6.89609 28.8809H10.4508L10.3492 28.5496C10.2984 28.3633 10.2578 27.2867 10.2578 26.1687V24.1191H10.0344C9.90234 24.1295 9.69922 24.2123 9.57734 24.3158Z" fill="#0F8FD3"/>
<path d="M37.7305 26.5L35.3945 28.8809H39.5586C42.9609 28.8809 43.8445 28.9119 44.3219 29.0362C44.8094 29.1707 44.9516 29.1707 45.0836 29.0672C45.3375 28.8602 50.0906 24.6368 50.375 24.3676L50.6289 24.1192H45.3477H40.0664L37.7305 26.5Z" fill="#0F8FD3"/>
<path d="M49.3594 27.6076C47.9375 28.8809 46.6273 30.0609 46.4445 30.2059L46.1297 30.4854L46.2719 31.0547C46.3937 31.5205 46.4141 33.1561 46.4141 40.4229V49.2217L49.207 46.375L52 43.518V34.3879C52 29.3674 51.9898 25.2578 51.9797 25.2682C51.9594 25.2682 50.7812 26.324 49.3594 27.6076Z" fill="#0F8FD3"/>
<path d="M0.253906 31.003L0 31.2515V41.1786V51.1058L0.264063 51.3542L0.528125 51.6026L10.5422 51.6337C17.9563 51.6544 20.6375 51.6233 20.8508 51.5405C21.4602 51.2817 21.4398 51.7475 21.4094 41.0337L21.3789 31.2411L21.0945 30.9927L20.8102 30.7442H10.6539H0.497656L0.253906 31.003ZM8.09453 44.2116C8.50078 44.3669 8.83594 44.7085 9.04922 45.1847C9.20156 45.5159 9.24219 45.8575 9.24219 46.8202C9.24219 48.1142 9.13047 48.58 8.70391 49.0458C8.19609 49.6048 8.04375 49.6358 5.58594 49.6358H3.30078L2.82344 49.3563C2.08203 48.9112 1.92969 48.4765 1.92969 46.8616C1.92969 45.4952 2.00078 45.1329 2.36641 44.7292C2.925 44.1184 3.00625 44.0977 5.50469 44.0977C6.88594 44.0977 7.92188 44.1392 8.09453 44.2116ZM19.1445 44.3565C19.4188 44.636 19.4797 45.1743 19.2664 45.4538C19.0023 45.8058 18.7078 45.8575 17.1133 45.8575H15.5188L15.2242 45.5573C14.8484 45.164 14.8281 44.7085 15.1836 44.3565C15.4273 44.0977 15.4578 44.0977 17.1641 44.0977C18.8703 44.0977 18.9008 44.0977 19.1445 44.3565ZM19.0836 48.0934C19.5 48.4454 19.5203 49.0147 19.1344 49.3874C18.8906 49.6151 18.7789 49.6358 17.6109 49.6772C16.0266 49.7186 15.4883 49.6358 15.1734 49.3253C14.7672 48.9112 14.9297 48.1556 15.4781 47.9278C15.5898 47.8761 16.382 47.8347 17.2352 47.8347C18.7484 47.8243 18.7789 47.8243 19.0836 48.0934Z" fill="#0F8FD3"/>
<path d="M3.65625 46.8408V47.8242H5.58594H7.51562V46.8408V45.8574H5.58594H3.65625V46.8408Z" fill="#0F8FD3"/>
<path d="M23.4203 31.0651L23.1563 31.386V41.1061C23.1563 51.7268 23.1359 51.2817 23.7352 51.5405C23.9484 51.6233 26.6398 51.6544 34.0539 51.6337L44.0984 51.6026L44.3422 51.3128L44.5859 51.0229V41.1372V31.2515L44.332 31.003L44.0883 30.7442H33.8813H23.6844L23.4203 31.0651ZM31.5555 44.3565C32.2867 44.8017 32.4492 45.2364 32.4492 46.8409C32.4492 48.3522 32.3273 48.7767 31.7484 49.2218C31.2711 49.5944 30.6922 49.6772 28.8234 49.6876C26.7313 49.6876 26.2234 49.5944 25.6953 49.0872C25.1672 48.5696 25.0555 48.0727 25.1063 46.5614C25.1469 45.4641 25.1672 45.3192 25.4211 44.9362C25.9289 44.1599 26.132 44.1081 28.7828 44.0977C31.0984 44.0977 31.1188 44.0977 31.5555 44.3565ZM42.2602 44.2323C42.7273 44.5946 42.768 45.1433 42.3617 45.5573L42.0672 45.8575H40.4727C38.6953 45.8575 38.3906 45.7747 38.1977 45.2364C38.0758 44.8534 38.1875 44.4911 38.5125 44.2634C38.6953 44.1288 39.0406 44.0977 40.4219 44.0977C41.5797 44.1081 42.1484 44.1392 42.2602 44.2323ZM42.4125 48.1659C42.9305 48.7767 42.5852 49.5013 41.7117 49.6358C41.4578 49.6772 40.6758 49.6876 39.9852 49.6772C38.8883 49.6358 38.6852 49.6048 38.4922 49.4288C38.1672 49.1286 38.0758 48.8181 38.1977 48.4454C38.3906 47.8864 38.6547 47.8243 40.5031 47.8554L42.1688 47.8761L42.4125 48.1659Z" fill="#0F8FD3"/>
<path d="M26.9141 46.8408V47.8242H28.793H30.6719V46.8408V45.8574H28.793H26.9141V46.8408Z" fill="#0F8FD3"/>
</svg>
