<svg width="37" height="37" viewBox="0 0 37 37" fill="none" xmlns="http://www.w3.org/2000/svg">
<path fill-rule="evenodd" clip-rule="evenodd" d="M25.4772 4.62508L11.4956 4.625C6.60924 4.625 3.08398 8.57399 3.08398 13.6576V23.3424C3.08398 28.426 6.60924 32.375 11.4956 32.375H25.4641C27.8111 32.3486 30.0326 31.3607 31.6242 29.641C33.2157 27.9211 34.0385 25.6199 33.9008 23.2728L33.9028 13.6576C34.0385 11.3801 33.2157 9.0788 31.6242 7.35905C30.0326 5.63932 27.8111 4.65129 25.4772 4.62508ZM11.4956 6.98133L25.4511 6.98125C27.1452 7.00028 28.7577 7.71746 29.913 8.96575C31.0683 10.2141 31.6654 11.8845 31.5655 13.5881L31.5635 23.3424C31.6654 25.1154 31.0683 26.786 29.913 28.0343C28.7577 29.2826 27.1452 29.9998 25.4511 30.0187H11.4956C7.95995 30.0187 5.42337 27.1771 5.42337 23.3424V13.6576C5.42337 9.82281 7.95995 6.98133 11.4956 6.98133ZM27.7877 13.3175C27.384 12.8095 26.6479 12.7273 26.1436 13.1339L19.8239 18.229L19.6427 18.3563C18.8976 18.823 17.9191 18.78 17.2053 18.2196L10.8394 13.1309L10.6962 13.0326C10.2024 12.7454 9.56116 12.858 9.19609 13.3213C8.7945 13.831 8.87917 14.5721 9.38518 14.9766L15.7591 20.0717L16.0078 20.2536C17.6113 21.3458 19.736 21.2853 21.2738 20.078L27.6054 14.9735L27.7325 14.8547C28.1206 14.434 28.1547 13.7793 27.7877 13.3175Z" fill="#005B9E"/>
</svg>
