<svg width="231" height="228" viewBox="0 0 231 228" fill="none" xmlns="http://www.w3.org/2000/svg">
<g clip-path="url(#clip0_87_669)">
<path fill-rule="evenodd" clip-rule="evenodd" d="M108.935 156.617C108.935 156.617 100.774 93.7571 95.4516 66.7664C90.129 39.7758 82.3226 15.2711 81.9677 12.43C81.6129 9.23373 104.323 18.1122 129.871 13.8506C152.581 9.94401 168.903 2.13093 172.097 0.355225H172.452V0.710365L109.29 156.262L108.935 156.617Z" fill="#FDC700"/>
<path fill-rule="evenodd" clip-rule="evenodd" d="M108.935 156.617V155.907C109.29 131.402 155.065 25.215 172.097 0.355225L172.452 1.42065L109.29 156.262L108.935 156.617Z" fill="#FCC200"/>
<path fill-rule="evenodd" clip-rule="evenodd" d="M147.258 173.664C155.419 172.598 163.935 172.598 171.387 176.505C176.71 179.346 179.903 183.607 180.613 189.645C180.968 195.327 179.194 200.299 176 204.916C168.194 214.86 156.129 218.766 143.71 218.411C138.032 218.056 133.774 216.636 128.806 214.15C103.968 199.944 106.806 162.299 109.645 155.196C111.419 158.748 103.613 196.748 130.226 211.308C134.839 213.794 138.742 214.505 143.71 214.86C154.71 215.215 165.71 211.664 172.452 202.785C174.935 199.234 176.71 194.972 176 190.71C175.29 186.449 173.161 183.607 169.258 181.477C162.871 178.28 155.065 178.636 147.968 179.346C117.806 183.607 89.7742 190.355 58.5484 186.804C42.5806 183.963 31.5806 179.701 20.2258 167.981C14.1935 160.879 10.6451 154.841 7.09676 146.673C5.32257 141.701 -1.06453 121.103 0.354825 116.131C0.709664 116.841 6.38708 139.215 9.22579 145.607C12.7742 153.421 16.3226 159.103 22.3548 165.14C33.3548 175.794 43.6451 179.701 58.9032 181.832C90.4839 185.028 117.097 177.215 147.258 173.664Z" fill="#FDC700"/>
<path fill-rule="evenodd" clip-rule="evenodd" d="M108.226 179.701C107.871 177.57 107.871 175.084 107.516 172.953L109.645 174.374C109.645 175.794 110 177.57 110.355 179.346L108.226 179.701Z" fill="#FBBE00"/>
<path fill-rule="evenodd" clip-rule="evenodd" d="M110.71 190.355C110 188.579 109.645 186.449 109.29 184.673H108.581C110.71 184.318 112.839 183.963 114.968 183.607L111.419 183.963C111.774 185.383 112.129 186.804 112.484 187.869C111.774 188.935 111.064 189.645 110.71 190.355Z" fill="#FBBE00"/>
<path fill-rule="evenodd" clip-rule="evenodd" d="M161.452 28.4113C153.29 18.8225 151.516 8.52345 151.516 8.52345C162.516 4.97205 169.968 1.42065 172.097 0.355225H172.452V0.710365L161.452 28.4113Z" fill="#CA1D53"/>
<path fill-rule="evenodd" clip-rule="evenodd" d="M151.516 8.52344C151.516 8.52344 153.29 18.8225 161.452 28.4113L154.355 45.458C141.935 33.3832 132.355 13.1403 132.355 13.1403C139.452 12.0748 145.839 10.2991 151.516 8.52344Z" fill="#96C11A"/>
<path fill-rule="evenodd" clip-rule="evenodd" d="M132.355 13.4954C132.355 13.4954 141.935 33.7384 154.355 45.8131L149.032 58.243C149.032 58.243 123.839 43.6823 94.7419 13.4954C103.613 14.9159 116.387 16.3365 129.871 13.8505C130.581 13.8505 131.645 13.4954 132.355 13.4954Z" fill="#009EDA"/>
<path fill-rule="evenodd" clip-rule="evenodd" d="M95.8065 69.6074C95.8065 69.6074 135.548 69.2523 149.032 58.2429L140.516 79.1962C132.71 85.2336 104.677 87.0093 98.6452 87.3644C97.9355 80.9719 96.871 74.5794 95.8065 69.6074Z" fill="#E62E61"/>
<path fill-rule="evenodd" clip-rule="evenodd" d="M99 87.7197C105.032 87.3646 132.71 85.5889 140.871 79.5515L132.71 99.7945C126.323 105.122 101.839 104.056 101.839 104.056C100.774 98.3739 99.7097 92.6917 99 87.7197Z" fill="#99D1C8"/>
<path fill-rule="evenodd" clip-rule="evenodd" d="M101.484 103.701C101.484 103.701 125.968 104.766 132.355 99.4392L124.194 120.392C118.871 123.944 103.968 120.392 103.968 120.392C102.903 114.71 102.194 109.383 101.484 103.701Z" fill="#964C97"/>
<path fill-rule="evenodd" clip-rule="evenodd" d="M103.613 120.037C103.613 120.037 118.516 123.944 123.839 120.037L109.29 156.262L108.935 156.617C108.935 156.617 106.452 139.925 103.613 120.037Z" fill="#E20616"/>
<path opacity="0.29" fill-rule="evenodd" clip-rule="evenodd" d="M156.484 10.6543C156.484 10.6543 130.935 20.5982 110 19.5328C89.0645 18.1122 90.4838 23.4393 92.6129 37.2898C94.7419 51.1403 103.258 92.6917 105.032 112.224C106.806 132.112 111.064 120.748 110.355 98.0188C109.645 75.2898 97.9355 43.3272 109.29 34.4487C121.355 25.5702 145.484 18.1122 156.484 10.6543Z" fill="white"/>
<path fill-rule="evenodd" clip-rule="evenodd" d="M109.645 156.972C109.645 156.972 159.677 116.841 182.387 100.505C205.097 84.1682 228.161 71.7383 230.29 69.9626C232.419 68.1869 209.71 58.9533 194.452 39.0654C180.613 20.9533 174.226 4.26169 173.161 1.06543H172.806H172.452L109.29 156.262L109.645 156.972Z" fill="#FDC700"/>
<path fill-rule="evenodd" clip-rule="evenodd" d="M109.645 156.972L110.355 156.617C127.032 138.15 168.194 30.1869 173.161 1.06543L172.097 1.77571L109.29 156.262L109.645 156.972Z" fill="#FCC200"/>
<path fill-rule="evenodd" clip-rule="evenodd" d="M161.452 28.4111C174.226 26.9906 182.387 20.5981 182.387 20.5981C176.71 10.6541 173.871 2.84105 173.161 0.710205H172.806H172.452L161.452 28.4111Z" fill="#CA1D53"/>
<path fill-rule="evenodd" clip-rule="evenodd" d="M182.387 20.5981C182.387 20.5981 173.871 26.9907 161.452 28.4112L154.355 45.458C171.742 45.1028 193.032 36.9346 193.032 36.9346C188.774 31.2523 185.226 25.5701 182.387 20.5981Z" fill="#96C11A"/>
<path fill-rule="evenodd" clip-rule="evenodd" d="M166.064 27.701C164.645 28.0561 163.226 28.4113 161.452 28.4113C160.387 27.3458 159.323 25.9253 158.613 24.8599C156.129 29.8318 153.29 35.5141 150.452 41.5515C151.871 42.972 152.935 44.3926 154.355 45.8131C156.129 45.8131 158.258 45.458 160.032 45.458C162.161 39.0655 164.29 33.0281 166.064 27.701Z" fill="#88B920"/>
<path fill-rule="evenodd" clip-rule="evenodd" d="M193.032 36.9346C193.032 36.9346 171.742 45.1028 154.355 45.4579L149.032 58.243C149.032 58.243 177.774 64.2804 220 62.1495C212.548 57.1776 202.258 49.7196 194.097 39.0654C194.097 38.3551 193.387 37.6449 193.032 36.9346Z" fill="#009EDA"/>
<path fill-rule="evenodd" clip-rule="evenodd" d="M160.032 45.1028C158.258 45.458 156.129 45.458 154.355 45.458C152.935 44.0374 151.871 42.6168 150.452 41.1963C148.323 45.458 146.194 50.0748 144.065 55.0468C147.258 57.1776 149.032 58.243 149.032 58.243C149.032 58.243 151.161 58.5982 154.71 59.3084C156.839 54.3365 158.613 49.7197 160.032 45.1028Z" fill="#0090CC"/>
<path fill-rule="evenodd" clip-rule="evenodd" d="M180.258 102.28C180.258 102.28 151.516 75.2896 149.387 58.2429L140.871 79.1962C142.29 88.785 161.452 109.028 165.355 113.29C170.677 109.028 176 105.477 180.258 102.28Z" fill="#E62E61"/>
<path fill-rule="evenodd" clip-rule="evenodd" d="M152.226 67.1214C150.806 63.9252 149.742 61.084 149.387 58.2429C147.258 60.0186 144.419 61.4392 141.226 62.8597C138.387 69.6074 135.548 76.3551 132.71 83.1027C136.258 82.0373 139.097 80.9719 140.871 79.5513C141.226 81.6822 142.645 84.5233 144.419 87.7196C146.903 80.9719 149.387 73.8691 152.226 67.1214Z" fill="#E51B5A"/>
<path fill-rule="evenodd" clip-rule="evenodd" d="M165.355 113.29C161.097 109.028 142.29 89.1402 140.871 79.1963L132.71 99.4393C133.774 107.608 152.226 123.234 152.226 123.234C156.484 120.037 161.097 116.486 165.355 113.29Z" fill="#99D1C8"/>
<path fill-rule="evenodd" clip-rule="evenodd" d="M144.064 87.7197C142.29 84.5235 140.871 81.6824 140.516 79.5515C138.742 80.9721 135.548 82.0375 132.355 83.1029C129.516 89.8506 127.032 96.2431 124.548 102.636C127.742 101.925 130.935 101.215 132.355 99.7945C132.71 101.925 134.129 104.411 135.903 107.252C138.742 100.86 141.581 94.1123 144.064 87.7197Z" fill="#8BBEB8"/>
<path fill-rule="evenodd" clip-rule="evenodd" d="M152.226 123.589C152.226 123.589 133.419 107.963 132.71 99.7944L124.194 120.393C125.258 126.785 139.097 133.888 139.097 133.888C143.355 130.336 147.613 126.785 152.226 123.589Z" fill="#964C97"/>
<path fill-rule="evenodd" clip-rule="evenodd" d="M136.258 106.897C134.129 104.056 132.71 101.57 132.71 99.4392C130.935 100.86 128.097 101.57 124.903 102.28C122.419 109.028 119.935 115.421 117.806 121.458C120.29 121.458 122.774 121.103 124.548 119.682C124.903 121.458 126.323 123.589 128.097 125.364C130.581 120.037 133.419 113.645 136.258 106.897Z" fill="#904693"/>
<path fill-rule="evenodd" clip-rule="evenodd" d="M139.097 133.888C139.097 133.888 125.613 126.43 124.194 120.393L109.29 156.262V156.972C109.645 156.972 122.774 146.318 139.097 133.888Z" fill="#E20616"/>
<path fill-rule="evenodd" clip-rule="evenodd" d="M127.742 125.72C125.968 123.944 124.548 121.813 124.194 120.037C122.774 121.103 120.29 121.458 117.452 121.813C112.129 137.084 108.935 149.159 108.581 155.907V156.617L108.935 156.262V156.972L109.645 156.617C114.613 151.645 121 140.28 127.742 125.72Z" fill="#E10023"/>
<path opacity="0.29" fill-rule="evenodd" clip-rule="evenodd" d="M177.065 18.8225C177.065 18.8225 188.419 43.3272 204.742 56.4674C221.065 69.6076 216.097 72.4487 204.742 80.972C193.742 89.4954 158.258 114 143 127.14C127.742 140.28 132.71 129.271 149.032 113.29C165.71 97.3085 196.581 81.6823 194.097 67.8319C192.323 53.2711 180.258 31.6076 177.065 18.8225Z" fill="white"/>
<path fill-rule="evenodd" clip-rule="evenodd" d="M161.452 28.4113C160.387 27.3459 159.323 25.9253 158.613 24.8599C163.935 14.2057 168.548 5.68233 172.097 0.355225L172.452 1.42065L173.516 0.710365C172.452 6.74775 169.968 16.3365 166.419 27.3459C164.29 28.0562 162.871 28.0562 161.452 28.4113Z" fill="#B51046"/>
<path fill-rule="evenodd" clip-rule="evenodd" d="M109.29 156.972L142.645 76.7104L172.806 0.710365L172.452 0.355225L141.226 76.0001L108.935 156.617L109.29 156.972Z" fill="#81062E"/>
<path fill-rule="evenodd" clip-rule="evenodd" d="M150.452 59.6636C150.452 59.6636 156.484 62.1496 164.29 62.8598C172.097 63.5701 168.548 67.8318 161.097 65.3458C153.645 62.8598 150.452 60.3739 151.871 62.1496C153.29 63.9253 159.323 70.3178 156.484 69.2524C154 68.1869 150.452 59.6636 150.452 59.6636Z" fill="#FCC200"/>
<path fill-rule="evenodd" clip-rule="evenodd" d="M146.548 58.2429C146.548 58.2429 140.516 56.112 134.484 51.1401C128.452 46.5233 128.097 51.8504 135.194 55.0466C142.29 58.2429 146.194 58.598 144.065 58.9532C141.935 59.3083 133.065 59.6635 135.548 61.084C138.387 62.1494 146.548 58.2429 146.548 58.2429Z" fill="#FCC200"/>
<path fill-rule="evenodd" clip-rule="evenodd" d="M230.645 69.6076L202.613 35.5141L173.161 0.710365H172.806V0.355225L201.548 36.2244L230.645 69.9627V69.6076Z" fill="#81062E"/>
<path fill-rule="evenodd" clip-rule="evenodd" d="M81.9677 12.0749L126.323 5.68233L172.097 0.355225H172.452H172.806L126.677 7.10289L81.9677 12.0749Z" fill="#81062E"/>
<path fill-rule="evenodd" clip-rule="evenodd" d="M84.8064 194.617C84.8064 194.617 85.1613 194.617 84.8064 194.617C85.1613 194.617 85.1613 194.617 84.8064 194.617C84.8064 193.906 85.1613 193.196 85.5161 192.841C86.2258 190.71 90.4839 183.963 92.6129 184.318C92.6129 184.318 88.7097 191.776 88.3548 193.551C88.3548 193.551 88 194.617 88 194.972C87.2903 197.813 86.9355 200.299 86.9355 203.14C86.9355 203.495 86.9355 206.692 86.2258 206.692C85.871 206.692 85.5161 203.495 85.1613 203.495C84.4516 201.364 84.4516 197.103 84.8064 194.617Z" fill="#E20616"/>
<path fill-rule="evenodd" clip-rule="evenodd" d="M89.0645 177.57C89.0645 178.991 89.0645 179.346 89.4193 180.411C90.129 181.832 91.9032 183.252 91.9032 183.607C91.1935 184.318 88 182.542 87.2903 181.477C86.2258 180.411 85.871 178.991 85.5161 177.215C85.5161 175.439 87.6451 169.757 89.0645 169.402C89.7742 170.112 88.7097 175.439 89.0645 177.57Z" fill="#E20616"/>
<path fill-rule="evenodd" clip-rule="evenodd" d="M78.4193 189.645C80.9032 188.579 89.7742 183.963 91.1935 184.318C90.8387 186.093 81.9677 191.421 79.8387 192.486C77.3548 193.196 75.2258 193.551 72.7419 192.841C71.3226 192.486 70.6129 192.131 69.5484 191.065C69.1935 190.71 66.7097 188.579 67.0645 187.869C67.4193 187.869 69.9032 189.645 70.258 189.645C71.3226 190 72.0322 190.355 73.0968 190.355C74.871 191.065 76.2903 190.355 78.4193 189.645Z" fill="#E20616"/>
<path fill-rule="evenodd" clip-rule="evenodd" d="M84.0968 180.056C84.0968 180.056 84.0968 180.411 84.0968 180.056C84.8064 181.122 85.5161 181.477 86.5806 181.832C86.9355 182.187 91.9032 183.607 91.9032 184.318C91.9032 185.028 86.2258 184.318 85.871 184.318C84.4516 183.963 83.0322 183.607 81.9677 182.187L81.6129 181.832C80.9032 180.766 80.5484 179.346 80.5484 177.925C80.5484 177.215 81.258 171.533 81.6129 171.533C81.9677 171.888 82.6774 176.86 83.0322 177.57C83.3871 178.636 83.3871 179.346 84.0968 180.056Z" fill="#E20616"/>
<path fill-rule="evenodd" clip-rule="evenodd" d="M92.6129 180.411C90.8387 180.056 89.7742 181.477 90.4839 184.673C91.1935 187.869 93.6774 188.224 94.0322 186.804C94.3871 186.804 94.3871 180.766 92.6129 180.411Z" fill="#E20616"/>
<path fill-rule="evenodd" clip-rule="evenodd" d="M92.9677 181.122C91.9032 181.122 92.6129 186.804 93.3226 186.804C94.3871 186.804 94.0323 182.897 92.9677 181.122Z" fill="#EE7D8B"/>
<path fill-rule="evenodd" clip-rule="evenodd" d="M106.806 177.57C109.645 178.635 111.065 182.187 110 185.028C108.935 188.224 105.387 189.645 102.548 188.579C99.7097 187.514 98.2903 183.963 99.3548 181.121C100.419 177.925 103.968 176.149 106.806 177.57Z" fill="#009EDA"/>
<path fill-rule="evenodd" clip-rule="evenodd" d="M109.645 183.608C109.645 183.608 109.645 180.766 106.097 179.701C102.548 178.636 101.129 181.832 100.419 181.122C99.3548 180.766 102.194 176.15 106.452 177.57C110.71 179.346 109.645 183.608 109.645 183.608Z" fill="#5ABCEB"/>
<path fill-rule="evenodd" clip-rule="evenodd" d="M143.355 171.888C145.839 172.953 147.258 175.794 146.194 178.636C145.129 181.122 142.29 182.542 139.452 181.477C136.968 180.411 135.548 177.57 136.613 174.729C137.677 172.243 140.871 170.823 143.355 171.888Z" fill="#964C97"/>
<path fill-rule="evenodd" clip-rule="evenodd" d="M145.839 177.57C145.839 177.57 145.839 175.084 143 174.019C139.806 172.953 138.742 175.794 138.032 175.439C137.323 175.084 139.452 171.177 143.355 172.598C146.903 173.663 145.839 177.57 145.839 177.57Z" fill="#B780B6"/>
<path fill-rule="evenodd" clip-rule="evenodd" d="M128.806 175.084C127.032 174.729 125.968 176.149 126.677 179.346C127.387 182.542 129.871 182.897 130.226 181.477C130.226 181.477 130.226 175.439 128.806 175.084Z" fill="#96C11A"/>
<path fill-rule="evenodd" clip-rule="evenodd" d="M128.806 175.794C127.742 175.794 128.452 181.477 129.161 181.477C130.226 181.477 129.871 177.57 128.806 175.794Z" fill="#ACCC5F"/>
<path fill-rule="evenodd" clip-rule="evenodd" d="M123.484 185.738C123.839 185.383 124.194 185.383 124.548 185.028C125.258 184.673 127.387 180.766 128.097 181.121C128.806 181.832 127.387 185.738 127.032 186.804C126.677 187.159 125.968 188.224 125.613 188.579C125.258 188.579 125.258 188.935 124.903 188.935C123.839 189.29 122.774 189.645 121.355 189.645C120.645 189.645 117.806 189.29 117.806 188.224C118.161 187.869 120.29 187.869 121 187.514C121.71 186.804 122.419 186.804 123.484 185.738C123.129 186.093 123.484 185.738 123.484 185.738Z" fill="#96C11A"/>
<path fill-rule="evenodd" clip-rule="evenodd" d="M124.903 170.467C124.903 170.467 124.903 170.822 124.903 170.467C124.903 170.822 124.903 170.822 124.903 170.467C125.258 171.177 125.613 171.888 125.613 172.598C125.968 174.019 125.968 174.729 125.968 176.149C125.968 176.505 125.968 176.86 126.323 177.215C126.323 177.57 127.387 178.635 127.387 178.991C127.032 179.346 125.613 178.28 125.258 178.28C124.548 177.925 124.194 177.57 124.194 176.86C123.839 176.505 123.129 174.019 122.774 173.663C122.419 172.953 122.419 172.598 122.065 172.243C121.71 171.177 121.355 170.822 120.645 169.757C120.29 169.047 119.581 168.692 119.226 167.981C118.516 166.916 118.161 166.916 117.097 166.206C117.097 166.206 116.742 166.206 116.742 165.85L117.097 165.495C117.097 165.495 117.097 165.495 117.452 165.495C118.516 165.14 119.226 165.495 120.29 165.85C121.355 166.206 122.065 166.916 122.774 167.626C123.129 167.981 124.548 170.112 124.903 170.467Z" fill="#96C11A"/>
<path fill-rule="evenodd" clip-rule="evenodd" d="M122.065 179.346C123.129 179.346 123.839 179.701 124.903 179.701C125.258 179.701 125.613 179.701 125.968 179.701C126.323 179.701 127.032 179.701 127.032 179.701C127.387 180.056 126.677 180.766 126.323 181.122C125.968 181.477 125.613 181.832 124.903 181.832C124.548 182.187 122.065 182.542 121.355 182.542C120.29 182.542 118.871 181.832 118.161 181.477C117.806 181.122 115.677 180.056 116.387 179.346C116.742 178.991 118.516 179.346 118.871 179.346C120.29 179.346 121 179.346 122.065 179.346Z" fill="#96C11A"/>
<path fill-rule="evenodd" clip-rule="evenodd" d="M173.516 200.654C176.71 201.72 178.129 205.271 176.71 208.467C175.29 211.664 171.742 213.084 168.903 212.019C165.71 210.953 164.29 207.402 165.71 204.206C166.774 201.009 170.323 199.234 173.516 200.654Z" fill="#E20616"/>
<path fill-rule="evenodd" clip-rule="evenodd" d="M176.355 207.047C176.355 207.047 176.355 204.206 172.806 202.785C169.258 201.72 167.839 204.916 166.774 204.561C165.71 204.206 168.548 199.589 173.161 201.009C177.419 202.43 176.355 207.047 176.355 207.047Z" fill="#EE7D8B"/>
<path fill-rule="evenodd" clip-rule="evenodd" d="M158.258 210.598C156.484 210.953 156.129 212.729 157.903 215.215C159.677 217.701 162.161 217.346 162.161 215.57C162.161 215.925 160.032 210.243 158.258 210.598Z" fill="#964C97"/>
<path fill-rule="evenodd" clip-rule="evenodd" d="M158.613 211.308C157.903 211.663 160.387 216.635 161.097 216.28C162.161 215.925 160.387 212.374 158.613 211.308Z" fill="#B780B6"/>
<path fill-rule="evenodd" clip-rule="evenodd" d="M152.581 221.608C152.935 221.608 152.935 221.608 152.581 221.608C152.935 221.608 153.29 221.252 153.645 221.252C154 221.252 154 220.897 154.355 220.542C155.419 219.122 157.903 216.28 159.677 215.925C159.677 216.28 156.839 221.963 156.839 221.963C156.484 222.673 156.129 223.028 155.419 223.383C155.065 223.738 154.355 224.094 153.645 224.094C152.226 224.449 151.161 224.449 149.742 224.094C148.323 223.738 147.258 223.383 146.194 222.673C145.839 222.318 143.71 220.897 144.065 220.187C144.419 220.187 146.548 220.897 146.903 220.897C147.968 221.252 149.032 221.252 150.097 221.252C151.161 221.963 151.871 221.963 152.581 221.608Z" fill="#964C97"/>
<path fill-rule="evenodd" clip-rule="evenodd" d="M151.871 205.981C152.581 206.692 153.29 207.402 153.645 208.112C154 208.822 157.548 213.084 157.903 213.439C156.484 214.505 152.581 210.953 151.516 209.888C150.806 209.178 150.452 208.822 150.097 208.467L149.742 208.112C149.032 207.402 148.323 207.047 147.258 207.047C146.903 207.047 146.548 207.047 146.548 207.047C146.194 207.047 145.484 207.402 145.484 207.402C145.129 207.402 144.774 207.757 144.419 207.757C144.065 207.757 143.71 208.467 143.355 208.112C143 207.757 143.355 207.047 143.71 206.692C143.71 206.337 144.419 205.626 144.774 205.626C145.129 205.271 145.839 204.916 146.194 204.916C146.903 204.561 147.258 204.561 147.968 204.561C149.387 204.561 150.806 204.916 151.871 205.626C151.516 205.626 151.871 205.981 151.871 205.981Z" fill="#964C97"/>
<path fill-rule="evenodd" clip-rule="evenodd" d="M150.452 214.86C152.226 214.86 157.548 214.505 157.903 214.505C158.258 216.28 152.581 217.701 150.806 218.056H150.452C149.032 218.056 147.968 217.701 146.548 217.346C145.484 216.991 144.065 216.28 143.355 215.215C143.355 215.215 143 214.86 143.355 214.505C143.355 214.505 143.71 214.505 144.065 214.505C145.129 214.86 146.194 214.86 147.258 215.215C148.323 214.86 149.032 214.86 150.452 214.86Z" fill="#964C97"/>
<path fill-rule="evenodd" clip-rule="evenodd" d="M158.968 222.318C158.968 222.318 158.968 221.963 158.968 222.318C159.323 221.252 159.677 220.897 159.677 219.832C160.032 219.122 159.323 216.991 159.677 216.636C160.742 216.28 161.806 219.122 161.806 219.477C162.161 220.542 162.161 221.963 161.806 223.028C161.097 224.449 158.258 228.355 156.839 228C156.839 227.645 158.613 223.738 158.968 222.318Z" fill="#964C97"/>
<path fill-rule="evenodd" clip-rule="evenodd" d="M50.7419 179.346C52.5161 180.056 53.5806 182.187 52.8709 184.318C52.1613 186.093 50.0322 187.159 47.9032 186.449C46.129 185.738 45.0645 183.607 45.7742 181.477C46.8387 179.346 48.9677 178.635 50.7419 179.346Z" fill="#96C11A"/>
<path fill-rule="evenodd" clip-rule="evenodd" d="M52.5161 183.252C52.5161 183.252 52.5161 181.477 50.3871 180.766C48.2581 180.056 47.1935 182.187 46.8387 181.832C46.129 181.477 47.9032 178.636 50.7419 179.701C53.2258 180.411 52.5161 183.252 52.5161 183.252Z" fill="#ACCC5F"/>
<path fill-rule="evenodd" clip-rule="evenodd" d="M42.2258 175.795C40.8064 174.374 39.3871 175.084 37.9677 177.925C36.5484 180.766 38.3226 182.542 39.7419 181.832C39.7419 181.832 43.2903 177.215 42.2258 175.795Z" fill="#009EDA"/>
<path fill-rule="evenodd" clip-rule="evenodd" d="M41.871 176.505C41.1613 176.15 38.3226 180.766 39.0323 181.477C39.7419 181.832 41.871 178.636 41.871 176.505Z" fill="#5ABCEB"/>
<path fill-rule="evenodd" clip-rule="evenodd" d="M28.3871 177.925C31.5806 178.991 37.2581 178.991 37.9677 179.346C36.5484 181.122 30.1613 181.832 27.3226 181.122C25.5484 180.411 23.7742 179.701 23.0645 178.28C22.7097 177.57 22.3548 176.86 22.3548 176.15C22.3548 175.084 22.3548 173.308 22.7097 172.243V171.888C22.7097 171.888 22.7097 171.533 23.0645 171.533C23.4193 171.533 23.4193 171.533 23.4193 171.888V172.243C23.4193 172.243 23.4193 172.243 23.4193 172.598C23.7742 173.664 23.7742 174.729 24.129 175.794C25.1935 177.57 26.2581 177.215 28.3871 177.925Z" fill="#009EDA"/>
<path fill-rule="evenodd" clip-rule="evenodd" d="M33.7097 169.047C33.7097 169.402 33.7097 169.402 33.7097 169.047C34.0645 169.402 34.0645 169.402 33.7097 169.047C35.129 170.467 35.4839 170.467 36.5484 172.243C36.9032 172.598 37.6129 174.374 37.6129 175.084C37.6129 175.439 37.9677 176.15 37.9677 176.505C37.9677 176.86 38.3226 176.86 38.3226 177.215C38.6774 177.57 39.0323 177.57 39.0323 177.215C39.3871 176.86 39.0323 176.86 39.3871 176.86C39.3871 176.86 39.7419 176.86 39.7419 176.505C40.0968 176.15 40.4516 175.439 40.4516 175.439C41.5161 174.019 41.5161 172.598 41.5161 170.823C41.5161 168.692 40.8065 166.206 39.3871 164.43C39.0323 164.075 38.3226 163.72 38.3226 163.365C36.9032 162.299 35.8387 161.944 34.4194 161.589C33 161.234 31.5806 161.234 30.1613 161.589C29.0968 161.944 28.3871 161.944 27.6774 162.654C27.3226 163.009 26.6129 164.43 26.9677 165.14C27.6774 165.495 28.3871 165.14 29.0968 165.495C29.4516 165.495 29.4516 165.851 30.1613 165.851C30.871 166.206 31.5806 166.561 31.9355 166.916C32.2903 167.271 33 168.337 33.3548 168.692C33.7097 168.692 33.7097 169.047 33.7097 169.047Z" fill="#009EDA"/>
<path fill-rule="evenodd" clip-rule="evenodd" d="M33.3548 175.439C33.3548 175.794 33.3548 175.794 33.3548 175.439C34.4193 176.149 38.3226 177.925 38.6774 178.28C37.9677 179.346 33.3548 178.635 31.9355 178.28C30.8709 177.57 30.1613 176.86 29.4516 175.794C29.0967 175.084 28.3871 172.598 29.0967 172.243C29.4516 172.243 30.5161 174.019 31.2258 174.374C31.9355 175.084 32.2903 175.084 33.3548 175.439Z" fill="#009EDA"/>
<path fill-rule="evenodd" clip-rule="evenodd" d="M36.9032 170.822C37.9677 172.243 39.3871 176.15 39.0322 177.215C37.9677 177.215 36.1935 174.019 34.7742 172.953C33.7097 171.888 33 171.533 31.9355 170.467C30.8709 169.757 28.3871 168.692 28.3871 168.692C26.258 166.206 31.9355 167.626 33.3548 168.336C33.7097 168.336 36.5484 170.467 36.9032 170.822Z" fill="#009EDA"/>
<path fill-rule="evenodd" clip-rule="evenodd" d="M111.419 144.542C112.129 142.056 115.323 122.523 112.839 125.009C110 127.495 111.774 142.411 110 139.57C107.871 136.729 107.871 130.336 107.871 132.822C107.871 135.308 111.065 148.449 111.065 148.449L111.419 144.542Z" fill="#E10023"/>
<path fill-rule="evenodd" clip-rule="evenodd" d="M116.387 146.318C117.452 144.187 128.806 127.495 129.161 131.047C129.516 134.598 117.806 144.187 121.355 143.477C124.903 142.766 129.516 138.149 127.742 139.925C125.613 142.056 114.258 149.159 114.258 149.159L116.387 146.318Z" fill="#E10023"/>
<path fill-rule="evenodd" clip-rule="evenodd" d="M129.871 13.4953C113.903 16.3364 99 13.8505 90.129 12.4299C86.5806 11.7196 84.0967 11.3645 82.6774 11.7196C81.9677 11.7196 81.258 12.0748 81.6129 12.785C81.6129 13.8505 82.6774 16.6916 83.7419 21.3084C86.5806 31.2523 91.5484 48.6542 95.0967 67.1215C100.419 94.1121 108.581 156.617 108.581 156.972V157.327L109.29 157.682L110 158.037H110.355C110.355 158.037 160.387 117.907 183.097 101.57C198.71 90.5607 214.323 80.972 223.548 75.6449C227.806 73.1589 230.29 71.3832 231.355 71.028C231.71 70.6729 231.71 69.9626 231.355 69.6075C230.645 68.5421 228.516 67.1215 225.323 65.3458C217.871 60.3738 205.097 52.2056 195.516 39.4206C188.774 30.5421 183.452 21.6636 180.258 14.9159C176.71 8.16822 174.935 3.19626 174.226 1.42056V1.06542L172.097 0C170.677 0.71028 165.71 3.19626 158.258 5.68224C150.806 8.52337 141.226 11.3645 129.871 13.4953ZM89.7742 13.1402C98.6451 14.5607 113.548 17.0467 129.871 14.2056C141.226 12.4299 151.161 9.23364 158.258 6.74766C165.355 4.26168 170.323 1.7757 171.742 1.06542L172.097 1.42056L172.452 1.06542C173.161 2.84112 174.935 7.81308 178.484 14.5607C182.032 21.3084 187 30.1869 194.097 39.0654C204.032 51.8505 216.806 60.0187 224.258 64.9907C227.097 66.7663 229.226 68.1869 229.935 69.2523C230.29 69.6075 230.29 69.6075 230.29 69.6075C229.581 70.3178 226.742 71.7383 222.839 74.2243C213.613 79.5514 198 89.1402 182.387 100.15C160.742 115.776 114.968 152.355 110 156.262V155.551L109.29 156.262C108.226 149.869 100.774 92.3364 95.8064 66.7663C92.258 47.9439 87.2903 30.8972 84.4516 20.5981C83.0322 15.9813 82.3226 13.1402 82.3226 12.0748C82.3226 12.0748 82.3226 12.0748 82.6774 12.0748C84.0967 12.0748 86.5806 12.4299 89.7742 13.1402Z" fill="#FCC200"/>
<path fill-rule="evenodd" clip-rule="evenodd" d="M151.871 44.3925C151.871 44.3925 150.806 44.3925 146.903 39.0654C142.645 33.7383 138.032 24.5047 136.258 25.9253C134.484 27.3458 139.452 36.5795 143.71 40.8411C147.968 45.1028 150.806 47.5888 147.968 46.1683C144.774 44.7477 136.968 36.2243 138.387 39.4206C139.806 42.2617 147.613 47.2337 145.484 47.2337C143.355 47.5888 124.903 33.3832 124.194 36.2243C123.484 38.7103 147.258 51.8505 148.677 51.4954C150.097 51.1402 151.871 44.3925 151.871 44.3925Z" fill="#0090CC"/>
<path fill-rule="evenodd" clip-rule="evenodd" d="M158.613 46.8784C158.613 46.8784 159.323 47.5887 166.065 46.5233C172.806 45.4579 182.387 41.9065 183.097 44.0373C183.806 46.1681 173.516 49.7195 167.129 49.7195C161.097 49.7195 157.194 49.7195 160.387 50.785C163.581 51.8504 175.29 50.785 172.097 52.2055C168.903 53.6261 160.032 51.8504 161.452 53.2709C162.871 55.0466 185.935 57.1775 184.516 59.3083C183.097 61.7943 156.839 55.0466 155.774 53.9812C155.419 53.2709 158.613 46.8784 158.613 46.8784Z" fill="#0090CC"/>
</g>
<defs>
<clipPath id="clip0_87_669">
<rect width="231" height="228" fill="white"/>
</clipPath>
</defs>
</svg>
