<svg width="360" height="275" viewBox="0 0 360 275" fill="none" xmlns="http://www.w3.org/2000/svg">
<g clip-path="url(#clip0_87_745)">
<path fill-rule="evenodd" clip-rule="evenodd" d="M146.63 33.8946C157.419 28.3604 176.554 38.4855 183.502 45.5082C189.941 52.0712 189.377 56.3521 201.318 60.3364C208.321 62.6185 215.312 62.6773 222.632 61.5603L221.768 57.8299C206.207 61.0739 194.726 56.5846 183.88 45.2971L180.914 42.2454C172.738 33.9267 156.603 25.5947 144.928 30.8803L146.63 33.8946Z" fill="#366D7C"/>
<path fill-rule="evenodd" clip-rule="evenodd" d="M71.4677 197.35C81.0725 205.118 87.3552 206.564 98.9262 205.054C117.062 202.849 130.822 208.295 138.083 225.552L134.34 226.405C130.106 215.387 119.52 205.441 107.263 204.856C105.409 204.653 100.155 206.35 99.1868 206.395C86.8258 209.586 79.0667 207.726 68.4937 200.003L71.4677 197.35Z" fill="#448B9F"/>
<path fill-rule="evenodd" clip-rule="evenodd" d="M210.791 159.388C222.55 175.371 239.626 179.211 256.872 168.829C263.375 164.946 262.915 165.451 269.302 163.121C284.259 157.488 291.51 158.888 305.626 167.605C314.332 172.902 323.477 181.175 330.259 188.785L327.368 191.145C314.18 175.713 291.992 154.901 269.597 163.204C266.445 164.222 260.827 168.353 258.018 170.419C240.196 182.858 220.757 178.356 207.686 161.371L210.791 159.388Z" fill="#448B9F"/>
<path fill-rule="evenodd" clip-rule="evenodd" d="M307.823 168.856C315.856 174.28 323.985 181.634 330.259 188.785L327.368 191.145C321.601 184.454 313.933 176.595 305.687 170.793L307.823 168.856Z" fill="#FBEFC7"/>
<path fill-rule="evenodd" clip-rule="evenodd" d="M210.791 159.388C220.682 172.944 234.607 177.802 249.104 172.674C249.235 173.345 249.365 174.016 249.79 174.769C234.373 180.908 218.972 175.635 207.686 161.371L210.791 159.388Z" fill="#7FBECF"/>
<path fill-rule="evenodd" clip-rule="evenodd" d="M30.3499 80.541L58.9219 169.414L215.445 163.231L116.702 42.9375L30.3499 80.541Z" fill="#FBEFC7"/>
<path fill-rule="evenodd" clip-rule="evenodd" d="M154.503 161.352L55.9248 97.229L182.808 162.635L154.503 161.352Z" fill="#FFF6E0"/>
<path fill-rule="evenodd" clip-rule="evenodd" d="M173.039 120.259L59.3325 89.624L192.783 140.701L173.039 120.259Z" fill="#FFF6E0"/>
<path fill-rule="evenodd" clip-rule="evenodd" d="M215.15 163.148C215.15 163.148 151.692 141.855 127.716 131.957C103.526 121.683 30.3499 80.541 30.3499 80.541C30.3499 80.541 117.915 112.402 131.427 118.73C145.022 124.764 215.15 163.148 215.15 163.148Z" fill="#EFE3BD"/>
<path fill-rule="evenodd" clip-rule="evenodd" d="M30.3499 80.541L174.854 113.792L147.489 29.6966L30.3499 80.541Z" fill="#7FBECF"/>
<path fill-rule="evenodd" clip-rule="evenodd" d="M30.3499 80.541L31.2357 80.7896C31.6134 80.5784 31.9087 80.6613 31.9911 80.3673C84.5082 53.2469 153.028 68.9837 160.787 70.8436L147.489 29.6966L30.3499 80.541Z" fill="#78B0C0"/>
<path fill-rule="evenodd" clip-rule="evenodd" d="M116.702 42.9375L174.854 113.792L30.3499 80.541L116.702 42.9375Z" fill="#448B9F"/>
<path fill-rule="evenodd" clip-rule="evenodd" d="M141.896 73.4704L174.641 113.415L31.2357 80.7896L158.541 103.824L141.896 73.4704Z" fill="#366D7C"/>
<path fill-rule="evenodd" clip-rule="evenodd" d="M116.702 42.9375L135.917 66.4023C109.453 63.0994 67.085 61.9931 31.9912 80.3673C31.6134 80.5784 31.3182 80.4956 31.2357 80.7895L30.3499 80.541L116.702 42.9375Z" fill="#3E7D8E"/>
<path fill-rule="evenodd" clip-rule="evenodd" d="M30.3499 80.541L151.034 165.769L69.1321 201.133L30.3499 80.541Z" fill="#7FBECF"/>
<path fill-rule="evenodd" clip-rule="evenodd" d="M30.3499 80.541L31.6613 81.5431C46.9666 141.644 110.083 183.451 110.083 183.451L69.1321 201.133L30.3499 80.541Z" fill="#78B0C0"/>
<path fill-rule="evenodd" clip-rule="evenodd" d="M58.9219 169.414L151.034 165.769L30.3499 80.541L58.9219 169.414Z" fill="#448B9F"/>
<path fill-rule="evenodd" clip-rule="evenodd" d="M151.034 165.769L36.481 84.7979L132.976 159.751L97.2734 167.808L151.034 165.769Z" fill="#366D7C"/>
<path fill-rule="evenodd" clip-rule="evenodd" d="M58.9219 169.414L90.4958 168.126C70.8128 150.872 41.6158 119.85 31.6613 81.5431L30.3499 80.541L58.9219 169.414Z" fill="#3E7D8E"/>
<path fill-rule="evenodd" clip-rule="evenodd" d="M31.8262 80.9553L126.269 122.356L215.15 163.148L125.479 124.037L31.8262 80.9553Z" fill="#CEC09B"/>
<path fill-rule="evenodd" clip-rule="evenodd" d="M59.0044 169.12L127.416 123.946L128.514 124.571L59.0044 169.12Z" fill="#CEC09B"/>
<path fill-rule="evenodd" clip-rule="evenodd" d="M116.325 43.1484L127.416 123.946L128.597 124.277L116.62 43.2313L116.325 43.1484Z" fill="#CEC09B"/>
</g>
<defs>
<clipPath id="clip0_87_745">
<rect width="318" height="196" fill="white" transform="translate(52.9474) rotate(15.6726)"/>
</clipPath>
</defs>
</svg>
