<svg width="182" height="55" viewBox="0 0 182 55" fill="none" xmlns="http://www.w3.org/2000/svg">
<g clip-path="url(#clip0_1_487)">
<path d="M157.812 0L158.761 3.20043C156.508 4.03017 154.137 4.50431 151.765 4.50431C149.394 4.50431 147.023 4.03017 144.77 3.20043L145.719 0C147.497 0.711207 149.631 1.06681 151.765 1.06681C153.9 1.06681 155.915 0.711207 157.812 0ZM33.9101 18.3728C33.9101 23.5884 32.843 28.0927 30.8274 32.1228C28.5746 36.5086 25.729 38.6422 22.2906 38.6422C19.5635 38.6422 17.3107 37.2198 15.1765 34.4935C13.398 32.0043 12.0938 28.8039 11.2638 24.7737H7.70684V45.5172C7.70684 46.2285 7.70684 46.8211 7.70684 47.4138C7.70684 48.0065 7.82541 48.7177 8.06254 49.3103L8.29967 49.7845L1.4228 55L1.0671 54.1703C0.592834 53.222 0.3557 52.1552 0.237134 51.0884C0.118567 49.903 0 48.7177 0 47.5323V7.70474H7.70684V16.5948H10.7896C11.0267 14.1056 11.7381 12.0905 12.8052 10.5496C14.4651 8.17888 17.0736 6.99353 20.6306 6.99353H23.9505C27.2704 6.99353 29.7603 8.06034 31.5388 10.0754C33.1987 12.0905 33.9101 14.8168 33.9101 18.3728ZM26.0847 19.2026C26.0847 16.4763 24.899 15.0539 22.4091 15.0539C19.9192 15.0539 18.615 16.4763 18.615 19.2026C18.615 22.1659 19.0893 24.6552 19.9192 26.7888C20.7492 28.9224 21.5792 29.9892 22.4091 29.9892C23.2391 29.9892 24.0691 28.9224 24.899 26.7888C25.6104 24.6552 26.0847 22.1659 26.0847 19.2026ZM54.7779 16.1207L52.8808 7.70474H37.3485V34.9677C37.3485 36.153 37.3485 37.3384 37.5857 38.4052C37.7042 39.5905 37.9414 40.6573 38.2971 41.4871L38.6528 42.3168L45.5296 37.1013L45.2925 36.5086C45.1739 35.9159 44.9368 35.3233 44.9368 34.7306V16.1207H54.7779ZM108.37 16.0022L106.473 7.58621H88.2137L86.3166 16.0022H93.4306V37.8125H101.137V16.0022H108.37ZM134.692 18.3728C134.692 23.5884 133.625 28.0927 131.609 32.1228C129.356 36.5086 126.511 38.6422 123.072 38.6422C119.634 38.6422 116.788 36.3901 114.535 32.1228C112.52 28.2112 111.453 23.5884 111.453 18.3728C111.453 15.1724 112.401 12.4461 114.18 10.194C115.958 7.94181 118.33 6.875 121.412 6.875H124.732C127.459 6.875 129.712 7.94181 131.491 9.9569C133.625 12.6832 134.692 15.4095 134.692 18.3728ZM126.748 19.2026C126.748 16.4763 125.562 15.0539 123.072 15.0539C120.582 15.0539 119.278 16.4763 119.278 19.2026C119.278 22.1659 119.752 24.6552 120.582 26.7888C121.412 28.9224 122.242 29.9892 123.072 29.9892C123.902 29.9892 124.732 28.9224 125.562 26.7888C126.392 24.6552 126.748 22.1659 126.748 19.2026ZM160.777 37.8125V7.70474H153.07V29.6336H152.24C150.343 29.6336 149.157 29.3966 148.327 28.9224C147.378 28.2112 146.786 26.7888 146.786 24.6552C146.786 22.5216 147.26 19.6767 148.208 16.1207C148.208 15.8836 149.038 13.0388 150.698 7.70474H142.754C141.213 11.972 140.027 15.528 139.435 18.6099C138.96 20.9806 138.605 23.2328 138.605 25.2478C138.605 29.0409 139.316 32.0043 140.62 34.1379C142.162 36.6272 144.77 37.931 148.327 37.931L160.777 37.8125ZM180.577 15.1724C180.577 13.1573 179.984 11.3793 178.917 10.0754C177.494 8.53448 175.479 7.70474 172.752 7.70474H165.756L163.859 15.8836H170.262C170.973 15.8836 171.448 15.8836 171.566 15.8836C171.685 15.8836 171.803 16.0022 171.803 16.2392C171.803 18.7284 167.772 23.7069 166.705 24.7737L167.416 25.3664C169.906 27.7371 175.479 45.7543 172.515 46.347C169.788 46.8211 166.586 46.4655 163.741 46.4655L165.638 54.6444H173.937C176.427 54.6444 178.562 53.6961 179.866 51.7996C181.644 49.3103 182.711 43.028 181.051 37.3384C179.629 32.3599 177.969 27.5 176.19 24.6552C178.562 22.0474 180.577 18.6099 180.577 15.1724Z" fill="url(#paint0_linear_1_487)"/>
<path d="M157.812 0L158.761 3.20043C156.508 4.03017 154.137 4.50431 151.765 4.50431C149.394 4.50431 147.023 4.03017 144.77 3.20043L145.719 0C147.497 0.711207 149.631 1.06681 151.765 1.06681C153.9 1.06681 155.915 0.711207 157.812 0ZM33.9101 18.3728C33.9101 23.5884 32.843 28.0927 30.8274 32.1228C28.5746 36.5086 25.729 38.6422 22.2906 38.6422C19.5635 38.6422 17.3107 37.2198 15.1765 34.4935C13.398 32.0043 12.0938 28.8039 11.2638 24.7737H7.70684V45.5172C7.70684 46.2285 7.70684 46.8211 7.70684 47.4138C7.70684 48.0065 7.82541 48.7177 8.06254 49.3103L8.29967 49.7845L1.4228 55L1.0671 54.1703C0.592834 53.222 0.3557 52.1552 0.237134 51.0884C0.118567 49.903 0 48.7177 0 47.5323V7.70474H7.70684V16.5948H10.7896C11.0267 14.1056 11.7381 12.0905 12.8052 10.5496C14.4651 8.17888 17.0736 6.99353 20.6306 6.99353H23.9505C27.2704 6.99353 29.7603 8.06034 31.5388 10.0754C33.1987 12.0905 33.9101 14.8168 33.9101 18.3728ZM26.0847 19.2026C26.0847 16.4763 24.899 15.0539 22.4091 15.0539C19.9192 15.0539 18.615 16.4763 18.615 19.2026C18.615 22.1659 19.0893 24.6552 19.9192 26.7888C20.7492 28.9224 21.5792 29.9892 22.4091 29.9892C23.2391 29.9892 24.0691 28.9224 24.899 26.7888C25.6104 24.6552 26.0847 22.1659 26.0847 19.2026ZM54.7779 16.1207L52.8808 7.70474H37.3485V34.9677C37.3485 36.153 37.3485 37.3384 37.5857 38.4052C37.7042 39.5905 37.9414 40.6573 38.2971 41.4871L38.6528 42.3168L45.5296 37.1013L45.2925 36.5086C45.1739 35.9159 44.9368 35.3233 44.9368 34.7306V16.1207H54.7779ZM108.37 16.0022L106.473 7.58621H88.2137L86.3166 16.0022H93.4306V37.8125H101.137V16.0022H108.37ZM134.692 18.3728C134.692 23.5884 133.625 28.0927 131.609 32.1228C129.356 36.5086 126.511 38.6422 123.072 38.6422C119.634 38.6422 116.788 36.3901 114.535 32.1228C112.52 28.2112 111.453 23.5884 111.453 18.3728C111.453 15.1724 112.401 12.4461 114.18 10.194C115.958 7.94181 118.33 6.875 121.412 6.875H124.732C127.459 6.875 129.712 7.94181 131.491 9.9569C133.625 12.6832 134.692 15.4095 134.692 18.3728ZM126.748 19.2026C126.748 16.4763 125.562 15.0539 123.072 15.0539C120.582 15.0539 119.278 16.4763 119.278 19.2026C119.278 22.1659 119.752 24.6552 120.582 26.7888C121.412 28.9224 122.242 29.9892 123.072 29.9892C123.902 29.9892 124.732 28.9224 125.562 26.7888C126.392 24.6552 126.748 22.1659 126.748 19.2026ZM160.777 37.8125V7.70474H153.07V29.6336H152.24C150.343 29.6336 149.157 29.3966 148.327 28.9224C147.378 28.2112 146.786 26.7888 146.786 24.6552C146.786 22.5216 147.26 19.6767 148.208 16.1207C148.208 15.8836 149.038 13.0388 150.698 7.70474H142.754C141.213 11.972 140.027 15.528 139.435 18.6099C138.96 20.9806 138.605 23.2328 138.605 25.2478C138.605 29.0409 139.316 32.0043 140.62 34.1379C142.162 36.6272 144.77 37.931 148.327 37.931L160.777 37.8125ZM180.577 15.1724C180.577 13.1573 179.984 11.3793 178.917 10.0754C177.494 8.53448 175.479 7.70474 172.752 7.70474H165.756L163.859 15.8836H170.262C170.973 15.8836 171.448 15.8836 171.566 15.8836C171.685 15.8836 171.803 16.0022 171.803 16.2392C171.803 18.7284 167.772 23.7069 166.705 24.7737L167.416 25.3664C169.906 27.7371 175.479 45.7543 172.515 46.347C169.788 46.8211 166.586 46.4655 163.741 46.4655L165.638 54.6444H173.937C176.427 54.6444 178.562 53.6961 179.866 51.7996C181.644 49.3103 182.711 43.028 181.051 37.3384C179.629 32.3599 177.969 27.5 176.19 24.6552C178.562 22.0474 180.577 18.6099 180.577 15.1724Z" fill="url(#paint1_linear_1_487)"/>
<path d="M157.812 0L158.761 3.20043C156.508 4.03017 154.137 4.50431 151.765 4.50431C149.394 4.50431 147.023 4.03017 144.77 3.20043L145.719 0C147.497 0.711207 149.631 1.06681 151.765 1.06681C153.9 1.06681 155.915 0.711207 157.812 0ZM33.9101 18.3728C33.9101 23.5884 32.843 28.0927 30.8274 32.1228C28.5746 36.5086 25.729 38.6422 22.2906 38.6422C19.5635 38.6422 17.3107 37.2198 15.1765 34.4935C13.398 32.0043 12.0938 28.8039 11.2638 24.7737H7.70684V45.5172C7.70684 46.2285 7.70684 46.8211 7.70684 47.4138C7.70684 48.0065 7.82541 48.7177 8.06254 49.3103L8.29967 49.7845L1.4228 55L1.0671 54.1703C0.592834 53.222 0.3557 52.1552 0.237134 51.0884C0.118567 49.903 0 48.7177 0 47.5323V7.70474H7.70684V16.5948H10.7896C11.0267 14.1056 11.7381 12.0905 12.8052 10.5496C14.4651 8.17888 17.0736 6.99353 20.6306 6.99353H23.9505C27.2704 6.99353 29.7603 8.06034 31.5388 10.0754C33.1987 12.0905 33.9101 14.8168 33.9101 18.3728ZM26.0847 19.2026C26.0847 16.4763 24.899 15.0539 22.4091 15.0539C19.9192 15.0539 18.615 16.4763 18.615 19.2026C18.615 22.1659 19.0893 24.6552 19.9192 26.7888C20.7492 28.9224 21.5792 29.9892 22.4091 29.9892C23.2391 29.9892 24.0691 28.9224 24.899 26.7888C25.6104 24.6552 26.0847 22.1659 26.0847 19.2026ZM54.7779 16.1207L52.8808 7.70474H37.3485V34.9677C37.3485 36.153 37.3485 37.3384 37.5857 38.4052C37.7042 39.5905 37.9414 40.6573 38.2971 41.4871L38.6528 42.3168L45.5296 37.1013L45.2925 36.5086C45.1739 35.9159 44.9368 35.3233 44.9368 34.7306V16.1207H54.7779ZM108.37 16.0022L106.473 7.58621H88.2137L86.3166 16.0022H93.4306V37.8125H101.137V16.0022H108.37ZM134.692 18.3728C134.692 23.5884 133.625 28.0927 131.609 32.1228C129.356 36.5086 126.511 38.6422 123.072 38.6422C119.634 38.6422 116.788 36.3901 114.535 32.1228C112.52 28.2112 111.453 23.5884 111.453 18.3728C111.453 15.1724 112.401 12.4461 114.18 10.194C115.958 7.94181 118.33 6.875 121.412 6.875H124.732C127.459 6.875 129.712 7.94181 131.491 9.9569C133.625 12.6832 134.692 15.4095 134.692 18.3728ZM126.748 19.2026C126.748 16.4763 125.562 15.0539 123.072 15.0539C120.582 15.0539 119.278 16.4763 119.278 19.2026C119.278 22.1659 119.752 24.6552 120.582 26.7888C121.412 28.9224 122.242 29.9892 123.072 29.9892C123.902 29.9892 124.732 28.9224 125.562 26.7888C126.392 24.6552 126.748 22.1659 126.748 19.2026ZM160.777 37.8125V7.70474H153.07V29.6336H152.24C150.343 29.6336 149.157 29.3966 148.327 28.9224C147.378 28.2112 146.786 26.7888 146.786 24.6552C146.786 22.5216 147.26 19.6767 148.208 16.1207C148.208 15.8836 149.038 13.0388 150.698 7.70474H142.754C141.213 11.972 140.027 15.528 139.435 18.6099C138.96 20.9806 138.605 23.2328 138.605 25.2478C138.605 29.0409 139.316 32.0043 140.62 34.1379C142.162 36.6272 144.77 37.931 148.327 37.931L160.777 37.8125ZM180.577 15.1724C180.577 13.1573 179.984 11.3793 178.917 10.0754C177.494 8.53448 175.479 7.70474 172.752 7.70474H165.756L163.859 15.8836H170.262C170.973 15.8836 171.448 15.8836 171.566 15.8836C171.685 15.8836 171.803 16.0022 171.803 16.2392C171.803 18.7284 167.772 23.7069 166.705 24.7737L167.416 25.3664C169.906 27.7371 175.479 45.7543 172.515 46.347C169.788 46.8211 166.586 46.4655 163.741 46.4655L165.638 54.6444H173.937C176.427 54.6444 178.562 53.6961 179.866 51.7996C181.644 49.3103 182.711 43.028 181.051 37.3384C179.629 32.3599 177.969 27.5 176.19 24.6552C178.562 22.0474 180.577 18.6099 180.577 15.1724Z" fill="url(#paint2_linear_1_487)"/>
<path d="M74.9342 2.96347C72.5629 2.48933 70.4287 1.89666 68.1759 2.60787C67.9388 2.7264 67.2274 2.84494 66.8717 3.08201C65.8046 2.60787 65.0932 2.25226 63.7889 2.48933C62.8404 2.7264 61.8919 3.67468 61.6547 4.62295C61.299 6.04537 61.8919 7.70485 62.7219 8.53459C62.129 10.1941 61.8919 12.0906 62.8404 13.9872C63.1961 14.8169 64.0261 15.4096 64.3818 16.1208C62.6033 16.832 62.129 17.0691 60.7062 18.61C59.5205 20.0324 56.3192 21.3363 54.7779 21.5734C52.0508 21.929 51.2209 25.3665 52.9994 26.9074C54.185 27.8557 55.7264 28.9225 59.402 27.3816C60.3505 27.026 61.0619 26.4333 61.4176 26.3148C61.1805 26.9074 60.9434 27.3816 60.9434 27.7372C57.9792 27.1445 58.6906 31.6488 57.5049 30.1079C56.7935 29.2781 55.3707 28.5669 53.9479 29.3967C51.6951 30.7005 51.8137 32.36 52.0508 34.138C52.288 36.0346 53.9479 39.4721 55.9635 39.9462C57.1492 40.1833 57.5049 39.9462 58.2163 39.235C58.6906 38.7609 59.2834 37.6941 60.3505 37.2199C61.0619 36.8643 62.4847 36.0346 64.6189 36.9829C65.5675 37.5755 68.0574 38.4053 69.9544 38.1682C71.1401 37.9311 71.7329 38.1682 72.5629 38.1682C74.46 38.5238 74.9342 38.8794 75.7642 41.1316C76.2385 42.554 76.7127 43.5023 77.4241 44.0949C78.1355 44.5691 79.3212 44.4505 80.744 44.0949C81.8111 43.7393 82.9968 43.1467 83.8267 42.6725C87.2652 40.3018 87.2652 38.8794 87.028 37.1014C86.7909 35.2048 84.5381 34.7307 83.3525 34.9678C81.574 35.4419 81.8111 33.4268 81.2183 32.2415C80.9811 31.5303 80.0326 30.9376 79.4398 30.9376C79.6769 29.8708 79.6769 28.0928 79.2026 27.263C80.0326 27.7372 81.574 28.3298 82.4039 28.4484C83.8267 28.6855 85.3681 28.6855 86.5538 28.0928C88.2137 27.263 89.2808 25.1294 88.2137 23.4699C87.6209 22.6402 86.6723 22.2846 85.3681 22.0475C82.9968 21.5734 81.0997 20.7436 79.3212 19.0842C78.3727 18.1359 78.017 17.3061 77.187 16.5949C77.7798 16.2393 78.017 16.0023 78.6098 15.2911C80.2697 13.276 80.3883 10.9053 79.5583 8.53459C80.0326 7.94192 80.8626 7.34925 80.9811 6.40097C81.4554 2.96347 78.017 0.948385 74.9342 2.96347Z" fill="#B74D2B"/>
<path d="M62.129 29.278C62.0105 30.9375 62.0105 32.3599 63.3147 34.375C64.5004 36.3901 66.0417 36.6272 67.346 36.8643C69.1245 37.1013 70.6658 36.153 71.2587 34.8492C71.9701 33.4268 72.0886 31.8858 71.6144 29.8707C71.0215 27.0259 70.073 23.7069 70.073 20.9806C69.5987 19.2026 67.5831 18.847 66.7531 19.2026C64.8561 20.388 62.2476 25.8405 62.129 29.278ZM69.4802 9.71986C68.5316 9.48279 67.9388 9.36425 66.8717 9.36425C67.1088 8.65305 66.6346 7.94184 65.9232 7.82331C65.3303 7.70477 64.8561 8.29744 64.8561 8.77158C64.8561 9.24572 64.9746 9.48279 65.3303 9.83839C65.0932 9.95693 64.8561 10.194 64.5004 10.3125C62.6033 11.8535 65.4489 15.0539 67.2274 15.4095C68.2945 15.6466 69.1245 15.4095 70.073 14.6983C71.2587 13.9871 72.4443 11.7349 71.2587 10.5496C71.1401 10.4311 71.0215 10.3125 70.7844 10.194C71.4958 9.83839 71.8515 8.53451 70.7844 8.06037C69.9544 7.70477 69.4802 8.17891 69.3616 8.77158C69.4802 9.12718 69.4802 9.36425 69.4802 9.71986ZM78.1356 43.1466C79.4398 44.8061 83.9453 42.5539 84.4196 40.7759C84.5382 40.3018 84.0639 39.9461 83.8268 39.2349C83.5896 38.1681 82.9968 38.1681 82.5225 38.1681C81.2183 38.1681 80.9812 39.472 80.1512 39.9462C79.4398 40.6574 77.3056 41.7242 78.1356 43.1466ZM56.5564 39.472C54.5408 39.9462 52.288 35.4418 53.118 33.7824C53.3551 33.3082 53.9479 33.4268 54.5408 32.9526C55.3707 32.2414 55.9636 32.597 56.2007 32.9526C57.2678 33.7824 56.5564 34.8492 56.9121 35.7974C57.0307 36.7457 58.2163 38.8793 56.5564 39.472ZM76.1199 4.14874C76.1199 4.38581 76.5942 4.74141 77.0685 5.57115C77.4242 6.16382 77.6613 6.99356 78.1356 7.1121C78.4913 7.23063 78.9655 6.40089 79.0841 6.04529C79.3212 5.09701 78.9655 4.50434 78.2541 3.79313C77.7799 3.43753 76.357 3.20046 76.1199 4.14874ZM62.8404 4.97848C62.6033 5.68968 62.7219 6.28236 63.3147 7.1121C63.789 5.92675 64.7375 4.97848 65.2118 4.50434C65.9232 3.79313 65.0932 3.6746 64.8561 3.6746C64.0261 3.55606 63.1961 4.0302 62.8404 4.97848ZM82.8782 37.5755C82.8782 37.2199 83.2339 35.916 84.301 36.0345C85.131 36.0345 84.8939 36.9828 84.4196 37.5755C83.9453 38.0496 82.9968 38.2867 82.8782 37.5755ZM56.3193 32.1229C56.5564 31.8858 57.1492 30.5819 56.2007 29.9893C55.4893 29.6336 55.1336 30.3449 55.2522 31.0561C55.2522 31.8858 55.7264 32.7155 56.3193 32.1229ZM56.9121 26.6703C57.3864 26.7888 57.8606 26.5518 57.9792 26.0776C58.0978 25.6035 57.7421 25.2479 57.7421 24.6552C57.7421 24.2996 58.0978 23.5884 57.5049 23.4699C57.1492 23.4699 56.5564 23.7069 56.3193 23.8255C55.7264 24.1811 55.4893 24.5367 55.4893 25.0108C55.3707 25.722 55.9636 26.4332 56.9121 26.6703ZM54.6593 25.1293C54.4222 24.8923 53.3551 24.5367 52.9994 25.3664C52.7623 25.9591 53.3551 26.1962 53.9479 26.0776C54.5408 26.0776 55.1336 25.6035 54.6593 25.1293ZM55.4893 26.3147C55.2522 26.1962 54.3036 25.9591 54.0665 26.7888C53.9479 27.3815 54.5408 27.5 55.015 27.3815C55.4893 27.1444 56.0821 26.5518 55.4893 26.3147ZM54.8965 23.8255C54.7779 23.5884 53.9479 23.1143 53.3551 23.8255C52.9994 24.2996 53.4737 24.6552 54.0665 24.6552C54.6593 24.6552 55.2522 24.2996 54.8965 23.8255ZM83.4711 24.5367C82.9968 24.4181 82.5225 24.5367 82.2854 25.0108C82.1668 25.4849 82.404 25.9591 82.404 26.4332C82.404 26.9074 81.9297 27.5 82.5225 27.6186C82.8782 27.7371 83.4711 27.5 83.8268 27.3815C84.4196 27.1444 84.7753 26.6703 84.8939 26.3147C85.0124 25.722 84.4196 24.8923 83.4711 24.5367ZM85.4867 25.9591C85.7238 26.1961 86.7909 26.6703 87.2652 25.8405C87.6209 25.2479 86.9095 24.8923 86.3167 25.0108C85.7238 25.0108 85.0124 25.6035 85.4867 25.9591ZM84.6567 24.7737C84.8939 24.8923 85.8424 25.2479 86.1981 24.4181C86.4352 23.8255 85.8424 23.5884 85.2496 23.7069C84.7753 23.8255 84.1825 24.4181 84.6567 24.7737ZM85.131 27.3815C85.2496 27.6186 86.0795 28.2112 86.6724 27.6186C87.0281 27.1444 86.6724 26.7888 86.0795 26.6703C85.4867 26.5518 84.7753 26.9074 85.131 27.3815ZM84.301 38.8793C84.301 38.5237 84.5382 37.4569 85.4867 37.5755C86.1981 37.5755 86.0795 38.4052 85.4867 38.8793C85.131 39.1164 84.301 39.472 84.301 38.8793ZM54.5408 32.2414C54.7779 32.0043 55.2522 30.9375 54.4222 30.4634C53.8294 30.1078 53.4737 30.819 53.5922 31.4117C53.5922 32.0043 54.0665 32.7155 54.5408 32.2414ZM84.7753 40.3018C84.7753 40.0647 85.0124 39.1164 85.8424 39.1164C86.4352 39.1164 86.3167 39.8276 85.8424 40.1832C85.6053 40.5388 84.8939 40.7759 84.7753 40.3018ZM53.118 33.0711C53.3551 32.8341 53.7108 32.0043 52.9994 31.5302C52.5251 31.1746 52.1694 31.7673 52.288 32.3599C52.4066 32.8341 52.7623 33.5453 53.118 33.0711Z" fill="#F2D7C4"/>
<path d="M69.7173 16.5949C69.243 16.832 69.0059 18.1359 69.243 19.0842C68.7687 18.7285 68.7687 17.7803 68.8873 17.0691C68.2945 16.5949 66.1603 16.0023 65.9231 17.0691C65.4489 17.0691 65.2117 16.0023 64.7375 15.291C63.9075 14.2242 62.3661 13.513 62.8404 15.054C63.5518 18.2544 63.4332 20.6251 62.6033 21.2178C63.6704 21.4548 65.2117 20.8622 65.5674 19.7954C65.686 19.4398 65.5674 18.8471 65.5674 18.3729C65.5674 18.0173 65.686 17.7803 65.8046 17.6617C65.8046 18.3729 65.8046 19.2027 66.2788 19.5583C66.7531 19.9139 67.4645 20.151 68.0573 19.9139C68.413 19.7954 68.413 19.3212 68.2945 18.9656C68.413 18.9656 68.7687 19.2027 68.6502 19.6768C68.6502 20.151 69.5987 20.151 69.7173 20.2695C70.5472 20.6251 70.9029 21.5734 71.3772 22.166C71.97 22.7587 72.2072 22.9958 72.9186 22.8773C72.5629 21.4548 72.8 20.2695 73.1557 18.9656C73.63 17.1876 74.9342 16.3579 74.8156 14.9354C74.8156 14.2242 74.2228 14.2242 73.8671 14.2242C72.8 14.4613 71.1401 15.6466 69.7173 16.5949Z" fill="#EE2424"/>
<path d="M65.686 10.9053C65.5674 11.3795 66.1603 12.2092 66.516 12.4463C66.516 13.1575 66.516 13.5131 66.6345 13.7502C66.3974 13.7502 66.0417 13.7502 65.9231 13.6316C65.9231 13.8687 66.6345 14.2243 66.8717 14.3428C67.5831 14.5799 68.1759 14.3428 68.2945 13.6316C68.0573 13.7502 67.8202 13.9872 67.2274 13.8687C67.1088 13.8687 66.7531 12.8019 66.7531 12.5648C66.7531 12.3278 68.2945 12.2092 68.413 11.1424C68.5316 10.7868 68.2945 10.4312 67.9388 10.4312L66.6345 10.1941C66.0417 9.95706 65.686 10.3127 65.686 10.9053Z" fill="#231F20"/>
<path d="M67.2274 14.3427C67.1088 14.3427 66.8717 14.3427 66.7531 14.3427C66.516 14.3427 65.9231 13.8685 65.8046 13.6315C65.9231 13.6315 66.1603 13.75 66.3974 13.75H66.516C66.3974 13.5129 66.3974 13.1573 66.3974 12.4461C66.0417 12.2091 65.5674 11.3793 65.5674 10.9052C65.686 10.3125 65.9231 10.0754 66.3974 10.0754H66.6345L67.9388 10.3125C68.0573 10.3125 68.1759 10.431 68.2945 10.5496C68.413 10.6681 68.413 10.9052 68.2945 11.0237C68.1759 11.7349 67.4645 11.972 66.9902 12.2091C66.7531 12.3276 66.6345 12.3276 66.516 12.4461C66.516 12.5647 66.516 12.9203 66.6345 13.1573C66.7531 13.5129 66.8717 13.75 66.8717 13.75C66.9902 13.75 67.1088 13.75 67.2274 13.75C67.5831 13.75 67.8202 13.6315 67.9388 13.5129C68.1759 14.1056 67.8202 14.3427 67.2274 14.3427ZM65.9231 13.6315C65.9231 13.8685 66.6345 14.2241 66.8717 14.2241C66.9902 14.2241 67.2274 14.2241 67.3459 14.2241C67.8202 14.2241 68.1759 13.9871 68.2945 13.5129C68.1759 13.6315 67.9388 13.75 67.5831 13.75C67.4645 13.75 67.3459 13.75 67.2274 13.75C67.1088 13.75 66.9902 13.3944 66.9902 13.1573C66.8717 12.8017 66.8717 12.5647 66.8717 12.4461C66.8717 12.3276 66.9902 12.3276 67.3459 12.2091C67.8202 12.0905 68.5316 11.7349 68.6502 11.0237C68.6502 10.9052 68.6502 10.6681 68.6502 10.5496C68.6502 10.431 68.413 10.3125 68.2945 10.3125L66.9902 10.0754H66.7531C66.2788 10.0754 65.9231 10.3125 65.9231 10.7866C65.9231 11.2608 66.3974 12.0905 66.7531 12.3276C66.7531 13.0388 66.7531 13.3944 66.8717 13.6315H66.7531C66.2788 13.75 66.0417 13.75 65.9231 13.6315Z" fill="#EC008C"/>
<path d="M65.3303 8.77165C65.3303 9.12726 65.4489 9.48286 65.8046 9.6014C65.9232 9.6014 66.1603 9.48286 66.3974 9.48286C66.516 9.00872 66.3974 8.53458 65.9232 8.41605C65.686 8.29752 65.3303 8.53458 65.3303 8.77165Z" fill="#231F20"/>
<path d="M65.8046 9.72002C65.4489 9.60149 65.2118 9.12735 65.3303 8.89028C65.3303 8.65321 65.5675 8.41614 65.8046 8.41614H65.9232C66.1603 8.41614 66.2789 8.53468 66.3974 8.77175C66.516 9.00881 66.516 9.24588 66.3974 9.48295C66.2789 9.48295 65.9232 9.60149 65.8046 9.72002ZM65.8046 8.29761C65.5675 8.29761 65.3303 8.53468 65.3303 8.77175C65.3303 9.12735 65.4489 9.48295 65.8046 9.60149C66.0417 9.60149 66.2789 9.48295 66.516 9.48295C66.6346 9.24588 66.6346 8.89028 66.516 8.77175C66.2789 8.53468 66.1603 8.41614 65.8046 8.29761C65.9232 8.29761 65.8046 8.29761 65.8046 8.29761Z" fill="#EC008C"/>
<path d="M71.1401 9.12722C71.1401 9.48283 70.903 9.83843 70.5473 9.95696C70.3101 9.83843 70.073 9.83843 69.8359 9.71989C69.7173 9.24576 69.8359 8.53455 70.4287 8.41602C70.7844 8.41602 71.1401 8.89015 71.1401 9.12722Z" fill="#231F20"/>
<path d="M70.5473 10.0756C70.4287 10.0756 70.3101 9.95708 70.073 9.95708C69.9544 9.95708 69.8359 9.95708 69.8359 9.83855C69.8359 9.60148 69.8359 9.12734 69.9544 8.89027C70.073 8.77174 70.1916 8.6532 70.4287 8.53467H70.5473C70.6658 8.53467 70.903 8.53467 71.0215 8.77174C71.1401 8.89027 71.1401 9.00881 71.1401 9.12734C71.1401 9.48294 70.903 9.83855 70.5473 10.0756ZM69.8359 9.83855C69.9544 9.83855 69.9544 9.83855 70.073 9.95708C70.1916 10.0756 70.3101 10.0756 70.5473 10.0756C70.903 9.83855 71.1401 9.48294 71.1401 9.12734C71.1401 9.00881 71.1401 8.89027 71.0215 8.77174C70.903 8.6532 70.7844 8.53467 70.5473 8.53467H70.4287C70.1916 8.53467 70.073 8.6532 69.9544 8.89027C69.8359 9.12734 69.8359 9.60148 69.8359 9.83855Z" fill="#EC008C"/>
<path d="M65.686 30.4635C65.686 30.5821 65.5675 31.1747 65.9232 31.2933C66.2789 31.2933 66.6346 30.8191 66.7531 30.4635V30.345C66.7531 30.2265 66.7531 29.9894 66.7531 29.8708C66.6346 29.9894 66.516 30.1079 66.2789 30.2265C66.0417 30.345 65.8046 30.4635 65.686 30.4635Z" fill="#B74D2B"/>
<path d="M16.8365 47.6509C17.6665 46.8212 18.615 46.4656 19.8007 46.4656C20.8678 46.4656 21.9349 46.8212 22.7648 47.6509C23.5948 48.4807 23.9505 49.4289 23.9505 50.6143C23.9505 51.6811 23.5948 52.7479 22.7648 53.5776C21.9349 54.4074 20.9863 54.763 19.8007 54.763C18.7336 54.763 17.6665 54.4074 16.8365 53.5776C16.0065 52.7479 15.6508 51.7996 15.6508 50.6143C15.6508 49.4289 16.0065 48.4807 16.8365 47.6509ZM21.5792 48.7177C21.1049 48.2436 20.5121 48.0065 19.8007 48.0065C19.0893 48.0065 18.4964 48.2436 18.0222 48.7177C17.5479 49.1919 17.3108 49.9031 17.3108 50.6143C17.3108 51.3255 17.5479 52.0367 18.0222 52.5108C18.4964 52.985 19.0893 53.222 19.8007 53.222C20.5121 53.222 21.1049 52.985 21.5792 52.5108C22.0534 52.0367 22.2906 51.3255 22.2906 50.6143C22.2906 49.9031 22.0534 49.1919 21.5792 48.7177Z" fill="#005B9E"/>
<path d="M27.3889 54.5258H25.729V46.584H32.9616V54.5258H31.3016V48.0064H27.3889V54.5258Z" fill="#005B9E"/>
<path d="M34.5029 46.584H41.6169V48.1249H38.8899V54.5258H37.23V48.0064H34.5029V46.584Z" fill="#005B9E"/>
<path d="M43.8697 47.6509C44.6997 46.8212 45.6482 46.4656 46.8339 46.4656C48.0196 46.4656 48.9681 46.8212 49.7981 47.6509C50.628 48.4807 50.9837 49.4289 50.9837 50.6143C50.9837 51.6811 50.628 52.7479 49.7981 53.5776C48.9681 54.4074 48.0196 54.763 46.8339 54.763C45.6482 54.763 44.6997 54.4074 43.8697 53.5776C43.0397 52.7479 42.684 51.7996 42.684 50.6143C42.5655 49.4289 43.0397 48.4807 43.8697 47.6509ZM48.4938 48.7177C48.0196 48.2436 47.4267 48.0065 46.7153 48.0065C46.0039 48.0065 45.4111 48.2436 44.9368 48.7177C44.4625 49.1919 44.2254 49.9031 44.2254 50.6143C44.2254 51.3255 44.4625 52.0367 44.9368 52.5108C45.4111 52.985 46.0039 53.222 46.7153 53.222C47.4267 53.222 48.0196 52.985 48.4938 52.5108C48.9681 52.0367 49.2052 51.3255 49.2052 50.6143C49.2052 49.9031 48.9681 49.1919 48.4938 48.7177Z" fill="#005B9E"/>
<path d="M56.5564 46.584C57.2678 46.584 57.9792 46.8211 58.3349 47.1767C58.8091 47.5323 59.0463 48.0064 59.0463 48.7176C59.0463 49.0732 58.9277 49.3103 58.8091 49.6659C58.6906 49.903 58.4534 50.14 58.3349 50.2586L58.0977 50.3771H58.2163C58.2163 50.3771 58.3349 50.4956 58.572 50.6142C58.6906 50.7327 58.8091 50.8512 58.9277 50.9698C59.0463 51.0883 59.1648 51.3254 59.2834 51.5624C59.402 51.7995 59.402 52.0366 59.402 52.2736C59.402 52.9848 59.1648 53.5775 58.6906 53.9331C58.2163 54.2887 57.5049 54.5258 56.6749 54.5258H52.6437V46.584H56.5564ZM57.1492 48.2435C57.0306 48.1249 56.7935 48.0064 56.5564 48.0064H54.4222V49.6659H56.5564C56.7935 49.6659 57.0306 49.5473 57.1492 49.4288C57.2678 49.3103 57.3863 49.0732 57.3863 48.8361C57.3863 48.5991 57.2678 48.362 57.1492 48.2435ZM54.4222 50.9698V53.1034H56.7935C57.1492 53.1034 57.3863 52.9848 57.6235 52.8663C57.8606 52.7478 57.8606 52.3922 57.8606 52.0366C57.8606 51.681 57.742 51.4439 57.5049 51.3254C57.2678 51.2068 57.0306 50.9698 56.6749 50.9698H54.4222Z" fill="#005B9E"/>
<path d="M65.9232 54.5258V53.6961C65.9232 53.6961 65.9232 53.6961 65.8046 53.8146C65.686 53.9331 65.686 53.9331 65.4489 54.0517C65.3303 54.1702 65.0932 54.2887 64.9746 54.4073C64.7375 54.5258 64.6189 54.5258 64.2632 54.6443C63.9075 54.7629 63.6704 54.7629 63.4333 54.7629C62.6033 54.7629 61.8919 54.5258 61.4176 54.0517C60.9433 53.5775 60.5876 53.1034 60.5876 52.3922C60.5876 51.681 60.8248 51.2068 61.1805 50.7327C61.5362 50.2586 62.129 50.0215 62.8404 49.903L65.8046 49.4288C65.8046 48.9547 65.686 48.5991 65.3303 48.362C64.9746 48.1249 64.6189 47.8879 64.1446 47.8879C63.6704 47.8879 63.3147 48.0064 62.959 48.1249C62.6033 48.2435 62.3661 48.4805 62.2476 48.5991L62.0104 48.8362L60.9434 47.7693L61.0619 47.6508C61.0619 47.5323 61.299 47.4137 61.4176 47.2952C61.6547 47.1767 61.7733 46.9396 62.0104 46.8211C62.2476 46.7025 62.4847 46.584 62.8404 46.4655C63.1961 46.3469 63.5518 46.3469 64.0261 46.3469C64.9746 46.3469 65.8046 46.584 66.3974 47.1767C66.9903 47.7693 67.346 48.4805 67.346 49.3103V54.5258H65.9232ZM65.4489 52.6293C65.8046 52.2737 66.0417 51.681 66.0417 50.8512V50.7327L63.4333 51.0883C63.0776 51.0883 62.8404 51.2068 62.7219 51.4439C62.6033 51.681 62.4847 51.918 62.4847 52.1551C62.4847 52.3922 62.6033 52.6293 62.8404 52.8663C63.0776 53.1034 63.4333 53.2219 63.9075 53.2219C64.5004 53.2219 64.9746 53.1034 65.4489 52.6293Z" fill="#005B9E"/>
<path d="M76.2384 46.5841V54.5259H74.5785V52.0367H72.8L71.2586 54.5259H69.4801L71.2586 51.7996C71.2586 51.7996 71.14 51.7996 71.14 51.6811C71.14 51.5626 70.9029 51.5626 70.7843 51.444C70.5472 51.3255 70.4286 51.207 70.3101 50.9699C70.1915 50.7328 70.0729 50.6143 69.9544 50.2587C69.8358 49.9031 69.8358 49.666 69.8358 49.3104C69.8358 48.4807 70.0729 47.888 70.6658 47.2953C71.2586 46.8212 71.97 46.4656 72.8 46.4656H76.2384V46.5841ZM72.5628 48.0065C72.2071 48.0065 71.8514 48.1251 71.6143 48.3621C71.3772 48.5992 71.2586 48.9548 71.2586 49.3104C71.2586 49.666 71.3772 50.0216 71.6143 50.2587C71.8514 50.4957 72.2071 50.6143 72.5628 50.6143H74.5785V48.0065H72.5628Z" fill="#005B9E"/>
<path d="M85.8424 49.9029L89.1622 54.5258H87.3837L84.7753 50.9698L83.471 52.2736V54.5258H81.8111V46.584H83.471V50.14L86.9095 46.584H88.9251L85.8424 49.9029Z" fill="#005B9E"/>
<path d="M90.9407 47.6509C91.7707 46.8212 92.7192 46.4656 93.9049 46.4656C95.0905 46.4656 96.0391 46.8212 96.869 47.6509C97.699 48.4807 98.0547 49.4289 98.0547 50.6143C98.0547 51.6811 97.699 52.7479 96.869 53.5776C96.0391 54.4074 95.0905 54.763 93.9049 54.763C92.7192 54.763 91.7707 54.4074 90.9407 53.5776C90.1107 52.7479 89.755 51.7996 89.755 50.6143C89.6365 49.4289 90.1107 48.4807 90.9407 47.6509ZM95.5648 48.7177C95.0905 48.2436 94.4977 48.0065 93.7863 48.0065C93.0749 48.0065 92.4821 48.2436 92.0078 48.7177C91.5335 49.1919 91.2964 49.9031 91.2964 50.6143C91.2964 51.3255 91.5335 52.0367 92.0078 52.5108C92.4821 52.985 93.0749 53.222 93.7863 53.222C94.4977 53.222 95.0905 52.985 95.5648 52.5108C96.0391 52.0367 96.2762 51.3255 96.2762 50.6143C96.2762 49.9031 96.0391 49.1919 95.5648 48.7177Z" fill="#005B9E"/>
<path d="M106.947 46.584H108.251V54.5258H106.592V49.3103L103.983 52.3922L101.375 49.3103V54.5258H99.7147V46.584H101.019L103.864 50.0215L106.947 46.584Z" fill="#005B9E"/>
<path d="M112.283 54.5258H110.623V46.584H117.855V54.5258H116.195V48.0064H112.283V54.5258Z" fill="#005B9E"/>
<path d="M124.851 54.5258V53.6961C124.851 53.6961 124.851 53.6961 124.732 53.8146C124.732 53.8146 124.614 53.9331 124.377 54.0517C124.258 54.1702 124.021 54.2887 123.902 54.4073C123.665 54.5258 123.547 54.5258 123.191 54.6443C122.835 54.7629 122.598 54.7629 122.361 54.7629C121.531 54.7629 120.82 54.5258 120.345 54.0517C119.871 53.5775 119.515 53.1034 119.515 52.3922C119.515 51.681 119.752 51.2068 120.108 50.7327C120.464 50.2586 121.057 50.0215 121.768 49.903L124.732 49.4288C124.732 48.9547 124.614 48.5991 124.258 48.362C123.902 48.1249 123.547 47.8879 123.072 47.8879C122.598 47.8879 122.242 48.0064 121.887 48.1249C121.531 48.2435 121.294 48.4805 121.175 48.5991L120.938 48.8362L119.871 47.7693L119.99 47.6508C119.99 47.5323 120.227 47.4137 120.345 47.2952C120.582 47.1767 120.701 46.9396 120.938 46.8211C121.175 46.7025 121.412 46.584 121.768 46.4655C122.124 46.3469 122.479 46.3469 122.954 46.3469C123.902 46.3469 124.732 46.584 125.325 47.1767C125.918 47.7693 126.274 48.4805 126.274 49.3103V54.5258H124.851ZM124.258 52.6293C124.614 52.2737 124.851 51.681 124.851 50.8512V50.7327L122.242 51.0883C121.887 51.0883 121.65 51.2068 121.531 51.4439C121.412 51.681 121.294 51.918 121.294 52.1551C121.294 52.3922 121.412 52.6293 121.65 52.8663C121.887 53.1034 122.242 53.2219 122.717 53.2219C123.428 53.2219 123.902 53.1034 124.258 52.6293Z" fill="#005B9E"/>
<path d="M130.542 54.5258H128.882V46.584H130.542V49.7844H134.455V46.584H136.115V54.5258H134.455V51.2068H130.542V54.5258Z" fill="#005B9E"/>
<path d="M145.719 46.584V54.5258H144.059V49.3103L139.909 54.5258H138.367V46.584H140.027V51.7995L144.177 46.584H145.719Z" fill="#005B9E"/>
<path d="M154.374 46.5841V54.5259H152.714V52.0367H150.936L149.394 54.5259H147.616L149.394 51.7996C149.394 51.7996 149.276 51.7996 149.276 51.6811C149.157 51.6811 149.038 51.5626 148.92 51.444C148.683 51.3255 148.564 51.207 148.446 50.9699C148.327 50.8514 148.208 50.6143 148.09 50.2587C147.971 49.9031 147.971 49.666 147.971 49.3104C147.971 48.4807 148.208 47.888 148.801 47.2953C149.394 46.8212 150.106 46.4656 150.936 46.4656H154.374V46.5841ZM150.698 48.0065C150.343 48.0065 149.987 48.1251 149.75 48.3621C149.513 48.5992 149.394 48.9548 149.394 49.3104C149.394 49.666 149.513 50.0216 149.75 50.2587C149.987 50.4957 150.343 50.6143 150.698 50.6143H152.714V48.0065H150.698Z" fill="#005B9E"/>
</g>
<defs>
<linearGradient id="paint0_linear_1_487" x1="91.0159" y1="0" x2="91.0159" y2="55.1067" gradientUnits="userSpaceOnUse">
<stop stop-color="#1B75BC"/>
<stop offset="0.241" stop-color="#187CC2"/>
<stop offset="0.586" stop-color="#0F8FD3"/>
<stop offset="0.992" stop-color="#00ADEE"/>
<stop offset="1" stop-color="#00AEEF"/>
</linearGradient>
<linearGradient id="paint1_linear_1_487" x1="91.0159" y1="0" x2="91.0159" y2="55.1067" gradientUnits="userSpaceOnUse">
<stop stop-color="#1B75BC"/>
<stop offset="0.241" stop-color="#187CC2"/>
<stop offset="0.586" stop-color="#0F8FD3"/>
<stop offset="0.992" stop-color="#00ADEE"/>
<stop offset="1" stop-color="#00AEEF"/>
</linearGradient>
<linearGradient id="paint2_linear_1_487" x1="91.0159" y1="0" x2="91.0159" y2="55.1067" gradientUnits="userSpaceOnUse">
<stop stop-color="#1B75BC"/>
<stop offset="0.241" stop-color="#187CC2"/>
<stop offset="0.586" stop-color="#0F8FD3"/>
<stop offset="0.992" stop-color="#00ADEE"/>
<stop offset="1" stop-color="#00AEEF"/>
</linearGradient>
<clipPath id="clip0_1_487">
<rect width="182" height="55" fill="white"/>
</clipPath>
</defs>
</svg>
