<svg width="44" height="58" viewBox="0 0 44 58" fill="none" xmlns="http://www.w3.org/2000/svg">
<path d="M22 0C10.0035 0 0.25 9.75352 0.25 21.75C0.25 37.7906 20.3121 56.8672 21.173 57.6715C21.4109 57.8867 21.7055 58 22 58C22.2945 58 22.6004 57.8867 22.827 57.6715C23.6879 56.8672 43.75 37.7906 43.75 21.75C43.75 9.75352 33.9965 0 22 0ZM22 33.8371C15.3391 33.8371 9.91289 28.4109 9.91289 21.75C9.91289 15.0891 15.3391 9.66289 22 9.66289C28.6609 9.66289 34.0871 15.0891 34.0871 21.75C34.0871 28.4109 28.6609 33.8371 22 33.8371Z" fill="url(#paint0_linear_86_515)"/>
<defs>
<linearGradient id="paint0_linear_86_515" x1="22" y1="58.081" x2="22" y2="0.0809507" gradientUnits="userSpaceOnUse">
<stop stop-color="#EE2424"/>
<stop offset="1" stop-color="#FD7272"/>
</linearGradient>
</defs>
</svg>
