<svg width="19" height="19" viewBox="0 0 19 19" fill="none" xmlns="http://www.w3.org/2000/svg">
<path fill-rule="evenodd" clip-rule="evenodd" d="M12.9199 11.8002L17.1848 16.0651L16.0652 17.1847L11.8003 12.9198C10.7278 13.7535 9.38023 14.2499 7.91666 14.2499C4.41886 14.2499 1.58333 11.4144 1.58333 7.91659C1.58333 4.41878 4.41886 1.58325 7.91666 1.58325C11.4145 1.58325 14.25 4.41878 14.25 7.91659C14.25 9.38015 13.7536 10.7278 12.9199 11.8002ZM7.91666 12.6666C10.54 12.6666 12.6667 10.5399 12.6667 7.91659C12.6667 5.29323 10.54 3.16659 7.91666 3.16659C5.29331 3.16659 3.16666 5.29323 3.16666 7.91659C3.16666 10.5399 5.29331 12.6666 7.91666 12.6666Z" fill="#292D32"/>
</svg>
