<svg width="18" height="16" viewBox="0 0 18 16" fill="none" xmlns="http://www.w3.org/2000/svg">
<g clip-path="url(#clip0_99_801)">
<path d="M16.6923 0.178021L0.704897 6.62963C0.704897 6.62963 -0.0535633 6.89384 0.00615803 7.3854C0.0658793 7.87695 0.681009 8.10429 0.681009 8.10429L4.70025 9.49907L4.70622 9.50521V9.49907L14.3572 3.18877C14.3572 3.18877 14.9126 2.83854 14.8947 3.18877C14.8947 3.18877 14.9962 3.25022 14.6976 3.539C14.399 3.82779 7.11299 10.562 7.11299 10.562L7.10105 10.6911L13.6584 15.8647C14.7513 16.3562 15.1515 15.3301 15.1515 15.3301L18.0002 0.565118C18.0002 -0.417985 16.6863 0.178021 16.6923 0.178021Z" fill="white"/>
<path d="M9.60918 12.6697L7.0113 15.1091C7.0113 15.1091 6.80825 15.2688 6.58728 15.1705L7.08297 10.6421" fill="white"/>
</g>
<defs>
<clipPath id="clip0_99_801">
<rect width="18" height="16" fill="white"/>
</clipPath>
</defs>
</svg>
