<svg width="14" height="14" viewBox="0 0 14 14" fill="none" xmlns="http://www.w3.org/2000/svg">
<g clip-path="url(#clip0_86_528)">
<path d="M12.9829 0.155891L0.548267 5.80105C0.548267 5.80105 -0.0416468 6.03223 0.00480314 6.46234C0.051253 6.89245 0.529687 7.09137 0.529687 7.09137L3.65577 8.3118L3.66041 8.31718V8.3118L11.1667 2.7903C11.1667 2.7903 11.5987 2.48385 11.5848 2.7903C11.5848 2.7903 11.6637 2.84406 11.4315 3.09675C11.1992 3.34944 5.53234 9.24191 5.53234 9.24191L5.52305 9.35481L10.6233 13.8817C11.4733 14.3118 11.7845 13.414 11.7845 13.414L14.0002 0.4946C14.0002 -0.365615 12.9783 0.155891 12.9829 0.155891Z" fill="#292D32"/>
<path d="M7.47379 11.086L5.45322 13.2204C5.45322 13.2204 5.29529 13.3602 5.12343 13.2741L5.50896 9.31177" fill="#292D32"/>
</g>
<defs>
<clipPath id="clip0_86_528">
<rect width="14" height="14" fill="white"/>
</clipPath>
</defs>
</svg>
