<svg width="15" height="16" viewBox="0 0 15 16" fill="none" xmlns="http://www.w3.org/2000/svg">
<g clip-path="url(#clip0_86_535)">
<path d="M13.74 8.96304C13.35 12.2075 10.995 12.4149 10.56 12.563C10.38 12.6223 8.655 13.0519 6.51 12.9186L4.17 15.4816V12.5334H4.155C1.02 11.6445 1.125 8.34082 1.155 6.60749C1.185 4.87415 1.515 3.45193 2.475 2.48897C4.2 0.918597 7.74 1.15563 7.74 1.15563C10.74 1.17045 12.165 2.07415 12.495 2.38526C13.59 3.33341 14.16 5.61489 13.74 8.96304ZM13.305 1.55563C12.915 1.20008 11.325 0.0297088 7.785 0.0148939C7.785 0.0148939 3.615 -0.236958 1.575 1.64452C0.450001 2.78526 0.0450012 4.45934 0.0150012 6.53341C-0.0299988 8.60749 -0.0749988 12.5038 3.63 13.5556V15.1705C3.63 15.1705 3.6 15.8223 4.035 15.9556C4.545 16.1186 4.845 15.6149 5.34 15.0816C5.61 14.7853 5.985 14.3556 6.255 14.0297C8.79 14.2519 10.74 13.7482 10.965 13.6742C11.475 13.5112 14.37 13.126 14.85 9.24452C15.33 5.24452 14.61 2.69638 13.305 1.55563Z" fill="#292D32"/>
<path d="M11.04 9.45182C11.04 9.45182 10.56 9.05182 10.335 8.87405C10.11 8.71108 9.765 8.48886 9.57 8.38516C9.225 8.19256 8.865 8.31108 8.715 8.50368L8.415 8.88886C8.265 9.08145 8.01 9.05182 7.95 9.03701C7.5 8.91849 7.02 8.65182 6.525 8.17775C6.03 7.70368 5.73 7.19997 5.625 6.69627L5.61 6.66664C5.58 6.45923 5.61 6.35553 5.7 6.20738L5.715 6.19256C5.925 5.99997 6.3 5.77775 6.36 5.55553C6.51 5.17034 5.85 4.37034 5.76 4.23701C5.76 4.23701 5.28 3.61479 5.115 3.49627C4.935 3.34812 4.65 3.25923 4.365 3.43701H4.35C3.525 3.98516 3.24 4.29627 3.315 4.77034L3.36 4.96293C3.78 6.25182 4.575 7.64442 5.775 8.87405C6.96 10.074 8.25 10.8 9.51 11.3037C9.84 11.4074 10.185 11.3185 10.53 11.0222C10.8 10.7703 11.01 10.5037 11.16 10.2222C11.325 9.9259 11.265 9.64442 11.04 9.45182Z" fill="#292D32"/>
<path d="M9.075 6.6075C9.03 6.6075 8.985 6.56306 8.985 6.51861C8.97 6.17787 8.88 5.92602 8.715 5.74824C8.55 5.57047 8.31 5.48158 7.995 5.46676C7.95 5.46676 7.905 5.42232 7.905 5.36306C7.905 5.3038 7.95 5.27417 8.01 5.27417C8.385 5.28898 8.67 5.4075 8.865 5.61491C9.06 5.82232 9.165 6.11861 9.195 6.5038C9.18 6.56306 9.135 6.6075 9.075 6.6075Z" fill="#292D32"/>
<path d="M10.005 6.93342C9.945 6.93342 9.915 6.88898 9.915 6.82972C9.93 6.19268 9.735 5.64453 9.345 5.21491C9.15 4.99268 8.91 4.82972 8.64 4.7112C8.37 4.59268 8.055 4.51861 7.695 4.48898C7.65 4.48898 7.605 4.44453 7.605 4.38528C7.605 4.32602 7.65 4.29639 7.71 4.29639C8.46 4.35565 9.06 4.62231 9.48 5.08157C9.9 5.55565 10.11 6.13342 10.095 6.82972C10.11 6.88898 10.065 6.93342 10.005 6.93342Z" fill="#292D32"/>
<path d="M10.965 7.30378C10.92 7.30378 10.875 7.25933 10.875 7.21489C10.875 6.65193 10.785 6.13341 10.62 5.68896C10.455 5.24452 10.2 4.85933 9.87001 4.53341C9.54001 4.20748 9.16501 3.95563 8.76001 3.79267C8.35501 3.6297 7.89001 3.54081 7.39501 3.54081C7.35001 3.54081 7.30501 3.49637 7.30501 3.45193C7.30501 3.39267 7.35001 3.36304 7.39501 3.36304C8.43001 3.37785 9.30001 3.71859 10.005 4.41489C10.35 4.75563 10.62 5.17044 10.8 5.64452C10.98 6.11859 11.07 6.65193 11.07 7.24452C11.07 7.25933 11.025 7.30378 10.965 7.30378Z" fill="#292D32"/>
</g>
<defs>
<clipPath id="clip0_86_535">
<rect width="15" height="16" fill="white"/>
</clipPath>
</defs>
</svg>
