<svg width="20" height="22" viewBox="0 0 20 22" fill="none" xmlns="http://www.w3.org/2000/svg">
<g clip-path="url(#clip0_180_1937)">
<path d="M18.32 12.324C17.8 16.7851 14.66 17.0703 14.08 17.274C13.84 17.3555 11.54 17.9463 8.67998 17.7629L5.55998 21.287V17.2333H5.53998C1.35998 16.0111 1.49998 11.4685 1.53998 9.08514C1.57998 6.70181 2.01998 4.74625 3.29998 3.42218C5.59998 1.26292 10.32 1.58885 10.32 1.58885C14.32 1.60922 16.22 2.85181 16.66 3.27959C18.12 4.58329 18.88 7.72033 18.32 12.324ZM17.74 2.13884C17.22 1.64996 15.1 0.040697 10.38 0.0203266C10.38 0.0203266 4.81998 -0.32597 2.09998 2.26107C0.599981 3.82959 0.0599813 6.13144 0.0199813 8.98329C-0.0400187 11.8351 -0.100019 17.1925 4.83998 18.6388V20.8592C4.83998 20.8592 4.79998 21.7555 5.37998 21.9388C6.05998 22.1629 6.45998 21.4703 7.11998 20.737C7.47998 20.3296 7.97998 19.7388 8.33998 19.2907C11.72 19.5963 14.32 18.9037 14.62 18.8018C15.3 18.5777 19.16 18.0481 19.8 12.7111C20.44 7.21107 19.48 3.70736 17.74 2.13884Z" fill="#7360F2"/>
<path d="M14.7197 12.9963C14.7197 12.9963 14.0797 12.4463 13.7797 12.2019C13.4797 11.9778 13.0197 11.6722 12.7597 11.5297C12.2997 11.2648 11.8197 11.4278 11.6197 11.6926L11.2197 12.2222C11.0197 12.4871 10.6797 12.4463 10.5997 12.4259C9.99966 12.263 9.35966 11.8963 8.69966 11.2445C8.03966 10.5926 7.63966 9.90002 7.49966 9.20743L7.47966 9.16669C7.43966 8.8815 7.47966 8.73891 7.59966 8.53521L7.61966 8.51484C7.89966 8.25002 8.39966 7.94447 8.47966 7.63891C8.67966 7.10928 7.79966 6.00928 7.67966 5.82595C7.67966 5.82595 7.03966 4.97039 6.81966 4.80743C6.57966 4.60373 6.19966 4.4815 5.81966 4.72595H5.79966C4.69966 5.47965 4.31966 5.90743 4.41966 6.55928L4.47966 6.8241C5.03966 8.59632 6.09966 10.5111 7.69966 12.2019C9.27966 13.8519 10.9997 14.85 12.6797 15.5426C13.1197 15.6852 13.5797 15.563 14.0397 15.1556C14.3997 14.8093 14.6797 14.4426 14.8797 14.0556C15.0997 13.6482 15.0197 13.2611 14.7197 12.9963Z" fill="#7360F2"/>
<path d="M12.1 9.08504C12.04 9.08504 11.98 9.02393 11.98 8.96282C11.96 8.4943 11.84 8.14801 11.62 7.90356C11.4 7.65912 11.08 7.53689 10.66 7.51652C10.6 7.51652 10.54 7.45541 10.54 7.37393C10.54 7.29245 10.6 7.25171 10.68 7.25171C11.18 7.27208 11.56 7.43504 11.82 7.72023C12.08 8.00541 12.22 8.41282 12.26 8.94245C12.24 9.02393 12.18 9.08504 12.1 9.08504Z" fill="#7360F2"/>
<path d="M13.3396 9.5334C13.2596 9.5334 13.2196 9.47228 13.2196 9.3908C13.2396 8.51488 12.9796 7.76117 12.4596 7.17043C12.1996 6.86488 11.8796 6.6408 11.5196 6.47784C11.1596 6.31488 10.7396 6.21303 10.2596 6.17229C10.1996 6.17229 10.1396 6.11117 10.1396 6.02969C10.1396 5.94821 10.1996 5.90747 10.2796 5.90747C11.2796 5.98895 12.0796 6.35562 12.6396 6.9871C13.1996 7.63895 13.4796 8.4334 13.4596 9.3908C13.4796 9.47228 13.4196 9.5334 13.3396 9.5334Z" fill="#7360F2"/>
<path d="M14.6202 10.0425C14.5602 10.0425 14.5002 9.98143 14.5002 9.92032C14.5002 9.14625 14.3802 8.43328 14.1602 7.82217C13.9402 7.21106 13.6002 6.68143 13.1602 6.23328C12.7202 5.78513 12.2202 5.43884 11.6802 5.21476C11.1402 4.99069 10.5202 4.86847 9.86023 4.86847C9.80023 4.86847 9.74023 4.80736 9.74023 4.74625C9.74023 4.66476 9.80023 4.62402 9.86023 4.62402C11.2402 4.64439 12.4002 5.11291 13.3402 6.07032C13.8002 6.53884 14.1602 7.10921 14.4002 7.76106C14.6402 8.41291 14.7602 9.14625 14.7602 9.96106C14.7602 9.98143 14.7002 10.0425 14.6202 10.0425Z" fill="#7360F2"/>
</g>
<defs>
<clipPath id="clip0_180_1937">
<rect width="20" height="22" fill="white"/>
</clipPath>
</defs>
</svg>
